<svg width="72" height="72" viewBox="0 0 72 72" fill="none" xmlns="http://www.w3.org/2000/svg">
<g id="automacoes 1">
<path id="secondary" d="M60 15H27C25.4087 15 23.8826 15.6321 22.7574 16.7574C21.6321 17.8826 21 19.4087 21 21V48C21 49.5913 21.6321 51.1174 22.7574 52.2426C23.8826 53.3679 25.4087 54 27 54H49.77L60.87 65.13C61.1503 65.408 61.4828 65.628 61.8483 65.7773C62.2138 65.9266 62.6052 66.0023 63 66C63.3935 66.0101 63.784 65.9279 64.14 65.76C64.6879 65.5349 65.1568 65.1527 65.4878 64.6616C65.8188 64.1704 65.997 63.5923 66 63V21C66 19.4087 65.3679 17.8826 64.2426 16.7574C63.1174 15.6321 61.5913 15 60 15Z" fill="#890069"/>
<path id="primary" d="M48 6H12C10.4087 6 8.88258 6.63214 7.75736 7.75736C6.63214 8.88258 6 10.4087 6 12V51C6.00296 51.5923 6.18116 52.1704 6.51216 52.6616C6.84316 53.1527 7.31214 53.5349 7.86 53.76C8.21604 53.9279 8.60647 54.0101 9 54C9.39482 54.0023 9.78621 53.9266 10.1517 53.7773C10.5172 53.628 10.8497 53.408 11.13 53.13L22.23 42H48C49.5913 42 51.1174 41.3679 52.2426 40.2426C53.3679 39.1174 54 37.5913 54 36V12C54 10.4087 53.3679 8.88258 52.2426 7.75736C51.1174 6.63214 49.5913 6 48 6Z" fill="#B872A2"/>
</g>
</svg>
