<svg width="72" height="72" viewBox="0 0 72 72" fill="none" xmlns="http://www.w3.org/2000/svg">
<g id="assistencia 2" clip-path="url(#clip0_720_1267)">
<path id="Vector" d="M65.1399 31.44L58.4399 29.44C58.1778 28.5426 57.8639 27.6611 57.4999 26.8C54.4254 26.28 51.5898 24.8135 49.3885 22.605C47.1872 20.3965 45.73 17.5562 45.2199 14.48C44.3532 14.1072 43.465 13.7866 42.5599 13.52L40.5599 6.9C40.4896 6.64112 40.3358 6.41265 40.1225 6.24995C39.9092 6.08725 39.6482 5.99941 39.3799 6H32.6199C32.3602 6.00121 32.1077 6.08527 31.899 6.23995C31.6904 6.39463 31.5366 6.61185 31.4599 6.86L29.4599 13.46C27.804 13.948 26.2075 14.6188 24.6999 15.46L18.6999 12.22C18.4682 12.0969 18.2029 12.0519 17.9435 12.0915C17.6841 12.1311 17.4444 12.2533 17.2599 12.44L12.3999 17.18C12.2133 17.3644 12.0911 17.6042 12.0514 17.8636C12.0118 18.123 12.0569 18.3882 12.1799 18.62L15.4199 24.62C14.5801 26.1212 13.9093 27.7109 13.4199 29.36L6.79994 31.36C6.55179 31.4366 6.33457 31.5905 6.17989 31.7991C6.02521 32.0077 5.94115 32.2603 5.93994 32.52V39.28C5.94115 39.5397 6.02521 39.7923 6.17989 40.0009C6.33457 40.2095 6.55179 40.3634 6.79994 40.44L13.4599 42.44C13.9546 44.0616 14.6253 45.6243 15.4599 47.1L12.1799 53.38C12.0569 53.6118 12.0118 53.877 12.0514 54.1364C12.0911 54.3958 12.2133 54.6356 12.3999 54.82L17.1799 59.6C17.3644 59.7867 17.6041 59.9089 17.8635 59.9485C18.1229 59.9881 18.3882 59.9431 18.6199 59.82L24.7999 56.52C26.2619 57.3089 27.804 57.9391 29.3999 58.4L31.3999 65.14C31.4766 65.3882 31.6304 65.6054 31.839 65.7601C32.0477 65.9147 32.3002 65.9988 32.5599 66H39.3199C39.5797 65.9988 39.8322 65.9147 40.0408 65.7601C40.2495 65.6054 40.4033 65.3882 40.4799 65.14L42.4799 58.38C44.0623 57.9167 45.5909 57.2865 47.0399 56.5L53.2599 59.82C53.4917 59.9431 53.757 59.9881 54.0164 59.9485C54.2758 59.9089 54.5155 59.7867 54.6999 59.6L59.4799 54.82C59.6666 54.6356 59.7888 54.3958 59.8285 54.1364C59.8681 53.877 59.823 53.6118 59.6999 53.38L56.3799 47.18C57.1747 45.7254 57.8116 44.19 58.2799 42.6L65.0199 40.6C65.2681 40.5234 65.4853 40.3695 65.64 40.1609C65.7947 39.9523 65.8787 39.6997 65.8799 39.44V32.62C65.8917 32.3713 65.8272 32.125 65.6949 31.914C65.5626 31.7031 65.369 31.5377 65.1399 31.44ZM35.9999 47C33.8243 47 31.6976 46.3549 29.8887 45.1462C28.0797 43.9375 26.6698 42.2195 25.8373 40.2095C25.0047 38.1995 24.7869 35.9878 25.2113 33.854C25.6357 31.7202 26.6834 29.7602 28.2218 28.2218C29.7601 26.6835 31.7202 25.6358 33.8539 25.2114C35.9877 24.7869 38.1995 25.0048 40.2095 25.8373C42.2194 26.6699 43.9374 28.0798 45.1461 29.8887C46.3548 31.6977 46.9999 33.8244 46.9999 36C46.9999 38.9174 45.841 41.7153 43.7781 43.7782C41.7152 45.8411 38.9173 47 35.9999 47Z" fill="#890069"/>
<path id="Vector_2" d="M60 22C65.5228 22 70 17.5228 70 12C70 6.47715 65.5228 2 60 2C54.4772 2 50 6.47715 50 12C50 17.5228 54.4772 22 60 22Z" fill="#B872A2"/>
</g>
<defs>
<clipPath id="clip0_720_1267">
<rect width="72" height="72" fill="white"/>
</clipPath>
</defs>
</svg>
