<svg width="72" height="72" viewBox="0 0 72 72" fill="none" xmlns="http://www.w3.org/2000/svg">
<g id="desenvolvimento 1">
<path id="Vector" fill-rule="evenodd" clip-rule="evenodd" d="M39.2601 64.1631L40.8864 61.4154C42.1476 59.2842 42.7785 58.2186 43.7916 57.6294C44.8047 57.0402 46.08 57.0183 48.6312 56.9745C52.3974 56.9094 54.7593 56.6787 56.7402 55.8582C60.4158 54.3357 63.3357 51.4158 64.8582 47.7402C66 44.9838 66 41.4891 66 34.5V31.5C66 21.6797 66 16.7695 63.7896 13.1625C62.5527 11.1442 60.8559 9.44724 58.8375 8.2104C55.2303 6 50.3202 6 40.5 6H31.5C21.6797 6 16.7695 6 13.1625 8.2104C11.1442 9.44724 9.44724 11.1442 8.2104 13.1625C6 16.7695 6 21.6797 6 31.5V34.5C6 41.4891 6 44.9838 7.1418 47.7402C8.66421 51.4158 11.5843 54.3357 15.2597 55.8582C17.2407 56.6787 19.6027 56.9094 23.3687 56.9745C25.9198 57.0183 27.1953 57.0402 28.2084 57.6294C29.2215 58.2189 29.8522 59.2842 31.1136 61.4154L32.7399 64.1631C34.1895 66.612 37.8105 66.612 39.2601 64.1631ZM44.9091 21.8978C45.7878 21.0191 47.2122 21.0191 48.0909 21.8978L48.7161 22.5228C50.622 24.4287 52.2114 26.018 53.3034 27.4493C54.4563 28.9601 55.2648 30.5565 55.2648 32.4888C55.2648 34.4211 54.4563 36.0174 53.3034 37.5282C52.2114 38.9595 50.622 40.5489 48.7161 42.4548L48.0909 43.0797C47.2122 43.9584 45.7878 43.9584 44.9091 43.0797C44.0304 42.201 44.0304 40.7766 44.9091 39.8979L45.4236 39.3831C47.4687 37.338 48.8391 35.961 49.7259 34.7985C50.5731 33.6882 50.7648 33.0417 50.7648 32.4888C50.7648 31.9359 50.5731 31.2894 49.7259 30.1791C48.8391 29.0165 47.4687 27.6395 45.4236 25.5945L44.9091 25.0798C44.0304 24.2011 44.0304 22.7765 44.9091 21.8978ZM42.0552 18.5823C42.3768 17.3821 41.6646 16.1483 40.4643 15.8267C39.264 15.505 38.0301 16.2174 37.7085 17.4177L29.9439 46.3953C29.6223 47.5956 30.3345 48.8295 31.5348 49.1511C32.7351 49.4727 33.969 48.7605 34.2906 47.5602L42.0552 18.5823ZM27.091 21.8978C27.9697 22.7765 27.9697 24.2011 27.091 25.0798L26.5763 25.5945C24.5313 27.6395 23.161 29.0165 22.2741 30.1791C21.4268 31.2894 21.2353 31.9359 21.2353 32.4888C21.2353 33.0417 21.4268 33.6882 22.2741 34.7985C23.161 35.961 24.5313 37.338 26.5763 39.3831L27.091 39.8979C27.9697 40.7766 27.9697 42.201 27.091 43.0797C26.2123 43.9584 24.7877 43.9584 23.909 43.0797L23.3943 42.5649L23.284 42.4548C21.378 40.5489 19.7886 38.9595 18.6965 37.5282C17.5438 36.0174 16.7353 34.4211 16.7353 32.4888C16.7353 30.5565 17.5438 28.9601 18.6965 27.4493C19.7886 26.018 21.378 24.4287 23.284 22.5228L23.3943 22.4125L23.909 21.8978C24.7877 21.0191 26.2123 21.0191 27.091 21.8978Z" fill="#9BBB59"/>
</g>
</svg>
