<svg width="36" height="36" viewBox="0 0 36 36" fill="none" xmlns="http://www.w3.org/2000/svg">
<path d="M28.2975 31.943C26.9365 31.943 25.779 31.466 24.825 30.512C23.871 29.558 23.394 28.4 23.394 27.038V20.288C23.394 19.497 23.6675 18.828 24.2145 18.281C24.7605 17.735 25.4295 17.462 26.2215 17.462C27.0125 17.462 27.6815 17.735 28.2285 18.281C28.7745 18.828 29.0475 19.497 29.0475 20.288V27.038H27.5475V20.288C27.5475 19.915 27.42 19.6005 27.165 19.3445C26.909 19.0895 26.594 18.962 26.22 18.962C25.846 18.962 25.532 19.0895 25.278 19.3445C25.022 19.6005 24.894 19.9155 24.894 20.2895V27.0395C24.894 27.9745 25.228 28.7755 25.896 29.4425C26.563 30.1095 27.365 30.443 28.302 30.443C29.24 30.443 30.041 30.1095 30.705 29.4425C31.37 28.7755 31.7025 27.974 31.7025 27.038V21.038H33.2025V27.038C33.2025 28.4 32.7255 29.558 31.7715 30.512C30.8175 31.466 29.6595 31.943 28.2975 31.943ZM5.22149 26C4.55449 26 3.98399 25.7625 3.50999 25.2875C3.03499 24.8135 2.79749 24.2435 2.79749 23.5775V7.4225C2.79749 6.7565 3.03499 6.1865 3.50999 5.7125C3.98399 5.2375 4.55399 5 5.21999 5H27.375C28.041 5 28.611 5.2375 29.085 5.7125C29.56 6.1865 29.7975 6.7565 29.7975 7.4225V16.0775H26.2215C25.0265 16.0775 24.0065 16.484 23.1615 17.297C22.3165 18.111 21.894 19.108 21.894 20.288V26H5.22149ZM16.2975 15.6725L28.2975 7.8275L27.837 6.5L16.2975 14L4.75949 6.5L4.29749 7.8275L16.2975 15.6725Z" fill="#F6F6F6"/>
</svg>
