<svg width="41" height="40" viewBox="0 0 41 40" fill="none" xmlns="http://www.w3.org/2000/svg">
<path d="M38.1317 0H2.53173C1.94825 0 1.38867 0.231785 0.976091 0.644365C0.563511 1.05695 0.331726 1.61652 0.331726 2.2V37.8C0.331726 38.3835 0.563511 38.9431 0.976091 39.3556C1.38867 39.7682 1.94825 40 2.53173 40H21.6917V24.5H16.4917V18.5H21.6917V14C21.584 12.9435 21.7087 11.8763 22.0572 10.8731C22.4056 9.8699 22.9693 8.95509 23.7087 8.19282C24.4481 7.43055 25.3453 6.83928 26.3374 6.46048C27.3295 6.08167 28.3924 5.9245 29.4517 6C31.0084 5.99042 32.5643 6.07055 34.1117 6.24V11.64H30.9317C28.4117 11.64 27.9317 12.84 27.9317 14.58V18.44H33.9317L33.1517 24.44H27.9317V40H38.1317C38.4206 40 38.7067 39.9431 38.9736 39.8325C39.2405 39.722 39.4831 39.5599 39.6874 39.3556C39.8917 39.1513 40.0537 38.9088 40.1643 38.6419C40.2748 38.375 40.3317 38.0889 40.3317 37.8V2.2C40.3317 1.91109 40.2748 1.62501 40.1643 1.3581C40.0537 1.09118 39.8917 0.848654 39.6874 0.644365C39.4831 0.440076 39.2405 0.278026 38.9736 0.167465C38.7067 0.0569049 38.4206 0 38.1317 0Z" fill="#F6F6F6"/>
</svg>
