<svg width="32" height="32" viewBox="0 0 32 32" fill="none" xmlns="http://www.w3.org/2000/svg">
<path d="M29.0784 2.92171C27.3152 1.15851 25.7472 1.67851 25.7472 1.67851L11.9248 15.4897L9.59998 22.4001L16.5072 20.0737L30.3216 6.25291C30.3216 6.25291 30.84 4.68491 29.0784 2.92171ZM16.968 18.5681L16.2144 19.3201L13.8576 20.1201C13.675 19.6755 13.4039 19.2727 13.0608 18.9361C12.7239 18.5933 12.3212 18.3223 11.8768 18.1393L12.6768 15.7825L13.4304 15.0305C13.4304 15.0305 14.672 14.8881 15.8896 16.1073C17.1088 17.3249 16.968 18.5681 16.968 18.5681ZM25.6 27.2001H4.79998V6.40011H12.8L16 3.20011H4.79998C3.03998 3.20011 1.59998 4.64011 1.59998 6.40011V27.2001C1.59998 28.9601 3.03998 30.4001 4.79998 30.4001H25.6C27.36 30.4001 28.8 28.9601 28.8 27.2001V16.0001L25.6 19.2001V27.2001Z" fill="#F6F6F6"/>
</svg>
