<svg width="1417" height="647" viewBox="0 0 1417 647" fill="none" xmlns="http://www.w3.org/2000/svg">
<path d="M1359 80C1359 124.183 1323.18 160 1279 160C1234.82 160 1199 124.183 1199 80C1199 35.8172 1234.82 0 1279 0C1323.18 0 1359 35.8172 1359 80Z" fill="#9BBB59"/>
<path d="M280 572C280 613.421 246.421 647 205 647C163.579 647 130 613.421 130 572C130 530.579 163.579 497 205 497C246.421 497 280 530.579 280 572Z" fill="#B872A2"/>
<path d="M1315 299C1315 312.807 1303.81 324 1290 324C1276.19 324 1265 312.807 1265 299C1265 285.193 1276.19 274 1290 274C1303.81 274 1315 285.193 1315 299Z" fill="#9BBB59" fill-opacity="0.3"/>
<path d="M1417 212.5C1417 233.211 1400.21 250 1379.5 250C1358.79 250 1342 233.211 1342 212.5C1342 191.789 1358.79 175 1379.5 175C1400.21 175 1417 191.789 1417 212.5Z" fill="#9BBB59" fill-opacity="0.6"/>
<path d="M50 443C50 456.807 38.8071 468 25 468C11.1929 468 0 456.807 0 443C0 429.193 11.1929 418 25 418C38.8071 418 50 429.193 50 443Z" fill="#B872A2" fill-opacity="0.3"/>
<path d="M100 546.5C100 567.211 83.2107 584 62.5 584C41.7893 584 25 567.211 25 546.5C25 525.789 41.7893 509 62.5 509C83.2107 509 100 525.789 100 546.5Z" fill="#B872A2" fill-opacity="0.6"/>
</svg>
