<svg width="25" height="25" viewBox="0 0 25 25" fill="none" xmlns="http://www.w3.org/2000/svg">
<path d="M23.6 1.37375C22.6837 0.4575 21.5812 0 20.2913 0H4.6825C3.3925 0 2.29 0.4575 1.37375 1.37375C0.4575 2.29 0 3.3925 0 4.6825V20.2913C0 21.5812 0.4575 22.6837 1.37375 23.6C2.29 24.5162 3.3925 24.9738 4.6825 24.9738H8.325C8.5625 24.9738 8.74125 24.965 8.86125 24.9487C9.00087 24.9208 9.12688 24.8463 9.21875 24.7375C9.3375 24.6125 9.3975 24.4312 9.3975 24.1937L9.38875 23.0875C9.38375 22.3825 9.38125 21.825 9.38125 21.4125L9.00625 21.4775C8.76875 21.5212 8.46875 21.54 8.105 21.535C7.72586 21.528 7.34793 21.49 6.975 21.4212C6.578 21.3479 6.20428 21.1808 5.885 20.9338C5.55062 20.6808 5.30122 20.332 5.17 19.9338L5.0075 19.5588C4.87054 19.2629 4.69846 18.9847 4.495 18.73C4.2625 18.4263 4.02625 18.2213 3.7875 18.1125L3.675 18.0312C3.59655 17.9751 3.5252 17.9096 3.4625 17.8363C3.40261 17.7682 3.35331 17.6915 3.31625 17.6087C3.28375 17.5325 3.31125 17.47 3.3975 17.4212C3.485 17.3713 3.64125 17.3475 3.87 17.3475L4.195 17.3975C4.41125 17.44 4.68 17.57 4.99875 17.7863C5.32133 18.0062 5.59079 18.2953 5.7875 18.6325C6.0375 19.0763 6.3375 19.415 6.69 19.6488C7.0425 19.8813 7.3975 19.9987 7.755 19.9987C8.1125 19.9987 8.42125 19.9713 8.6825 19.9175C8.93514 19.8653 9.18063 19.783 9.41375 19.6725C9.51125 18.9475 9.77625 18.3875 10.21 17.9975C9.64797 17.9424 9.09095 17.8446 8.54375 17.705C8.00974 17.5583 7.49617 17.3454 7.015 17.0712C6.51156 16.7972 6.06688 16.4268 5.70625 15.9812C5.36 15.5475 5.075 14.9788 4.8525 14.275C4.63125 13.57 4.52 12.7563 4.52 11.835C4.52 10.5238 4.9475 9.4075 5.80375 8.485C5.40375 7.5 5.44125 6.39375 5.9175 5.17C6.2325 5.07125 6.69875 5.145 7.31625 5.38875C7.93375 5.6325 8.38625 5.84125 8.67375 6.01375C8.96125 6.18875 9.19125 6.335 9.365 6.45375C10.3812 6.17094 11.4314 6.02878 12.4862 6.03125C13.56 6.03125 14.6 6.1725 15.6088 6.45375L16.2262 6.06375C16.7012 5.77857 17.2022 5.53916 17.7225 5.34875C18.2975 5.13125 18.735 5.0725 19.04 5.17C19.5275 6.395 19.57 7.5 19.1688 8.48625C20.025 9.4075 20.4538 10.5238 20.4538 11.8363C20.4538 12.7575 20.3425 13.5737 20.12 14.2825C19.8988 14.9925 19.6112 15.5612 19.2587 15.99C18.8918 16.4299 18.4452 16.7967 17.9425 17.0712C17.4175 17.3637 16.9075 17.575 16.4137 17.705C15.8666 17.8451 15.3096 17.9433 14.7475 17.9988C15.31 18.4862 15.5925 19.255 15.5925 20.3063V24.1937C15.5925 24.3775 15.6187 24.5262 15.6737 24.64C15.699 24.6948 15.7351 24.744 15.7797 24.7845C15.8244 24.8251 15.8768 24.8563 15.9338 24.8762C16.0537 24.9187 16.1588 24.9463 16.2513 24.9562C16.3438 24.9688 16.4762 24.9725 16.6488 24.9725H20.2913C21.5812 24.9725 22.6837 24.515 23.6 23.5987C24.515 22.6838 24.9738 21.58 24.9738 20.29V4.6825C24.9738 3.3925 24.5162 2.29 23.6 1.37375Z" fill="white"/>
</svg>
