<svg width="25" height="25" viewBox="0 0 25 25" fill="none" xmlns="http://www.w3.org/2000/svg">
<g id="Group">
<path id="Vector 4" d="M13.5 18L7.5 12L18.5 1.5H24L22.5 9L13.5 18Z" fill="#B872A2" stroke="black"/>
<path id="Vector" opacity="0.2" d="M5.99996 16L8.99996 19C8.99996 19 7.99996 23 1.99996 23C1.99996 17 5.99996 16 5.99996 16ZM14 5H6.2937C6.02884 5.00012 5.77485 5.10532 5.58745 5.2925L1.2937 9.58625C1.16261 9.71763 1.07066 9.88291 1.02816 10.0636C0.985658 10.2442 0.994274 10.4332 1.05304 10.6092C1.11181 10.7853 1.21842 10.9415 1.36093 11.0604C1.50344 11.1793 1.67623 11.2562 1.85996 11.2825L6.99996 12L14 5ZM13 18L13.7175 23.14C13.7437 23.3237 13.8206 23.4965 13.9395 23.639C14.0585 23.7815 14.2147 23.8881 14.3907 23.9469C14.5668 24.0057 14.7557 24.0143 14.9364 23.9718C15.117 23.9293 15.2823 23.8373 15.4137 23.7062L19.7075 19.4125C19.8946 19.2251 19.9998 18.9711 20 18.7062V11L13 18Z" fill="#630043"/>
<path id="Vector_2" d="M9.97124 19.2425C9.92249 19.4363 8.70374 24 1.99999 24C1.73477 24 1.48042 23.8947 1.29288 23.7071C1.10534 23.5196 0.999987 23.2652 0.999987 23C0.999987 16.2963 5.56374 15.0775 5.75749 15.0288C6.01491 14.9645 6.28734 15.005 6.51485 15.1416C6.74235 15.2781 6.9063 15.4995 6.97061 15.7569C7.03493 16.0143 6.99435 16.2867 6.8578 16.5143C6.72125 16.7418 6.49991 16.9057 6.24249 16.97C6.12999 17.0013 3.43999 17.7875 3.04749 21.9525C7.21249 21.56 7.99999 18.875 8.03249 18.75C8.09879 18.4929 8.26451 18.2727 8.49319 18.1378C8.72186 18.0029 8.99477 17.9643 9.25186 18.0306C9.50896 18.0969 9.72918 18.2627 9.86409 18.4913C9.999 18.72 10.0375 18.9929 9.97124 19.25V19.2425ZM21.5962 10.8175L21 11.4138V18.705C21.0015 18.9687 20.9505 19.23 20.8501 19.4738C20.7497 19.7175 20.6018 19.9389 20.415 20.125L16.125 24.4125C15.94 24.5988 15.7199 24.7467 15.4775 24.8475C15.2351 24.9484 14.9751 25.0002 14.7125 25C14.4958 25 14.2805 24.9649 14.075 24.8963C13.7221 24.7795 13.4089 24.5665 13.1708 24.2811C12.9327 23.9957 12.7791 23.6494 12.7275 23.2813L12.0562 18.47L6.52999 12.9438L1.72124 12.2725C1.35267 12.2208 1.00583 12.0673 0.719745 11.8293C0.43366 11.5912 0.219677 11.278 0.101867 10.925C-0.0159437 10.5719 -0.0329071 10.193 0.0528846 9.83088C0.138676 9.46872 0.32382 9.13769 0.587487 8.87502L4.87499 4.58502C5.06108 4.39825 5.28246 4.25035 5.52624 4.14992C5.77002 4.04949 6.03133 3.99853 6.29499 4.00002H13.5862L14.1825 3.40377C17.5175 0.0700173 21.5362 -0.0737325 23.1087 0.0200175C23.5963 0.0496487 24.0562 0.256706 24.4016 0.602121C24.747 0.947537 24.9541 1.40743 24.9837 1.89502C25.075 3.46377 24.9312 7.48252 21.5975 10.8175H21.5962ZM1.99999 10.2925L6.64374 10.94L11.5862 6.00002H6.29499L1.99999 10.2925ZM8.41499 12L13 16.585L20.1812 9.40377C21.149 8.44251 21.8998 7.28524 22.3832 6.00972C22.8666 4.7342 23.0714 3.36999 22.9837 2.00877C21.6232 1.92432 20.2603 2.13119 18.9862 2.61555C17.712 3.09992 16.5558 3.85062 15.595 4.81752L8.41499 12ZM19 13.4138L14.0587 18.355L14.7087 23L19 18.705V13.4138Z" fill="#630043"/>
</g>
</svg>
