<svg width="333" height="333" viewBox="0 0 333 333" fill="none" xmlns="http://www.w3.org/2000/svg">
<path d="M333 254.678H0V254.845H333V254.678Z" fill="#E0E0E0"/>
<path d="M296.756 258.961H274.945V259.127H296.756V258.961Z" fill="#E0E0E0"/>
<path d="M219.96 262.577H192.707V262.744H219.96V262.577Z" fill="#E0E0E0"/>
<path d="M230.356 262.577H224.042V262.744H230.356V262.577Z" fill="#E0E0E0"/>
<path d="M87.6923 260.666H62.0513V260.832H87.6923V260.666Z" fill="#E0E0E0"/>
<path d="M138.861 260.666H115.997V260.832H138.861V260.666Z" fill="#E0E0E0"/>
<path d="M268.498 258.961H245.241V259.127H268.498V258.961Z" fill="#E0E0E0"/>
<path d="M56.61 260.666H34.3989V260.832H56.61V260.666Z" fill="#E0E0E0"/>
<path d="M157.842 224.975H29.2441C28.2366 224.973 27.2711 224.572 26.5594 223.859C25.8476 223.146 25.4479 222.179 25.4479 221.172V40.3996C25.4566 39.3979 25.8603 38.4402 26.571 37.7344C27.2818 37.0286 28.2424 36.6317 29.2441 36.63H157.842C158.851 36.63 159.818 37.0307 160.531 37.7438C161.244 38.457 161.645 39.4243 161.645 40.4329V221.172C161.645 222.181 161.244 223.148 160.531 223.861C159.818 224.574 158.851 224.975 157.842 224.975ZM29.2441 36.7632C28.2808 36.765 27.3576 37.1489 26.6771 37.8306C25.9966 38.5124 25.6144 39.4363 25.6144 40.3996V221.172C25.6144 222.135 25.9966 223.059 26.6771 223.741C27.3576 224.423 28.2808 224.807 29.2441 224.808H157.842C158.806 224.807 159.73 224.423 160.411 223.741C161.093 223.06 161.477 222.136 161.478 221.172V40.3996C161.477 39.4357 161.093 38.5118 160.411 37.8302C159.73 37.1486 158.806 36.765 157.842 36.7632H29.2441Z" fill="#E0E0E0"/>
<path d="M301.904 224.975H173.3C172.292 224.973 171.326 224.572 170.613 223.859C169.9 223.146 169.499 222.18 169.497 221.172V40.3996C169.507 39.3973 169.913 38.4396 170.624 37.734C171.336 37.0283 172.297 36.6317 173.3 36.63H301.904C302.905 36.6335 303.864 37.0311 304.573 37.7367C305.283 38.4423 305.685 39.3991 305.694 40.3996V221.172C305.694 222.178 305.295 223.143 304.585 223.856C303.875 224.569 302.911 224.971 301.904 224.975ZM173.3 36.7632C172.336 36.765 171.412 37.1486 170.73 37.8302C170.049 38.5118 169.665 39.4357 169.663 40.3996V221.172C169.665 222.136 170.049 223.06 170.73 223.741C171.412 224.423 172.336 224.807 173.3 224.808H301.904C302.868 224.807 303.792 224.423 304.474 223.741C305.155 223.06 305.539 222.136 305.541 221.172V40.3996C305.539 39.4357 305.155 38.5118 304.474 37.8302C303.792 37.1486 302.868 36.765 301.904 36.7632H173.3Z" fill="#E0E0E0"/>
<path d="M101.498 95.4311L114.938 82.1711L112.134 76.7232C112.381 76.1837 112.614 75.6376 112.8 75.0782L118.661 73.2933L118.794 54.4055L112.954 52.5341C112.741 51.9813 112.521 51.4285 112.288 50.8824L115.218 45.4612L101.965 32.0146L96.5101 34.8251C95.964 34.5721 95.4178 34.3456 94.8584 34.1591L93.0735 28.2983L74.1924 28.1651L72.2943 33.966C71.7349 34.1725 71.1821 34.3922 70.636 34.632L65.2214 31.7482L51.7749 45.0216L54.612 50.4761C54.3656 51.0156 54.1325 51.5684 53.946 52.1212L48.0253 53.946L47.8921 72.8271L53.7329 74.6986C53.9394 75.258 54.1591 75.8108 54.3989 76.3569L51.5151 81.7648L64.7752 95.2114L70.2297 92.4075C70.7692 92.6539 71.322 92.887 71.8747 93.0735L73.6663 98.941L92.5474 99.0675L94.4188 93.2267C94.9783 93.0202 95.5311 92.8004 96.0772 92.5607L101.498 95.4311ZM93.24 73.5997C91.2609 75.551 88.7476 76.8716 86.018 77.3946C83.2883 77.9176 80.4649 77.6194 77.9047 76.5377C75.3445 75.456 73.1626 73.6395 71.6348 71.3177C70.107 68.996 69.302 66.2734 69.3215 63.4941C69.3411 60.7149 70.1843 58.0039 71.7447 55.7039C73.305 53.4039 75.5123 51.6182 78.0874 50.5727C80.6626 49.5271 83.4899 49.2687 86.212 49.83C88.934 50.3913 91.4284 51.7472 93.3799 53.7262C94.6765 55.0399 95.7014 56.5961 96.3961 58.3061C97.0909 60.0161 97.4418 61.8463 97.4288 63.6919C97.4158 65.5376 97.0392 67.3626 96.3204 69.0627C95.6017 70.7627 94.555 72.3044 93.24 73.5997Z" fill="#9BBB59"/>
<path d="M50.4361 130.536L59.274 121.878L57.4358 118.302C57.5956 117.942 57.7488 117.582 57.8887 117.216L61.7448 116.044L61.8314 103.643L57.9952 102.417C57.8554 102.051 57.7089 101.685 57.549 101.325L59.4405 97.7755L50.7225 88.911L47.1461 90.7558C46.7865 90.5893 46.4268 90.4428 46.0605 90.2963L44.8884 86.4468L32.4874 86.3602L31.2553 90.1964C30.889 90.3296 30.5294 90.4761 30.1698 90.6359L26.64 88.7445L17.7888 97.4491L19.627 101.032C19.4671 101.385 19.314 101.751 19.1741 102.111L15.318 103.29L15.238 115.691L19.0675 116.916C19.2074 117.283 19.3539 117.649 19.5138 118.009L17.6223 121.558L26.3269 130.389L29.9034 128.538C30.263 128.705 30.6226 128.851 30.9889 128.998L32.1611 132.847L44.562 132.934L45.7941 129.097C46.1604 128.958 46.5201 128.811 46.8797 128.658L50.4361 130.536ZM45.0082 116.217C43.7091 117.5 42.0586 118.37 40.2654 118.715C38.4722 119.06 36.617 118.865 34.9343 118.156C33.2517 117.446 31.8174 116.253 30.8127 114.729C29.8081 113.204 29.2783 111.415 29.2905 109.589C29.3026 107.763 29.856 105.981 30.8808 104.47C31.9056 102.959 33.3557 101.785 35.0475 101.098C36.7394 100.411 38.5971 100.241 40.3855 100.61C42.174 100.979 43.8129 101.87 45.0948 103.17C45.946 104.032 46.619 105.054 47.0753 106.176C47.5316 107.299 47.7624 108.5 47.7543 109.711C47.7463 110.923 47.4996 112.121 47.0285 113.237C46.5573 114.354 45.8708 115.366 45.0082 116.217Z" fill="#9BBB59"/>
<path d="M306.84 240.899L313.253 234.572L311.921 231.974C312.041 231.715 312.148 231.455 312.254 231.189L315.051 230.336L315.111 221.332L312.354 220.446C312.254 220.18 312.148 219.92 312.034 219.653L313.406 217.076L307.026 210.656L304.422 211.988C304.162 211.868 303.903 211.761 303.636 211.661L302.784 208.864L293.779 208.798L292.887 211.582C292.62 211.681 292.361 211.788 292.101 211.901L289.517 210.523L283.11 216.843L284.442 219.447C284.322 219.707 284.209 219.966 284.109 220.233L281.312 221.085L281.252 230.09L284.036 230.982C284.136 231.249 284.236 231.508 284.355 231.768L282.977 234.345L289.304 240.759L291.901 239.427C292.161 239.547 292.421 239.653 292.687 239.753L293.54 242.551L302.544 242.617L303.436 239.827C303.703 239.733 303.969 239.627 304.229 239.507L306.84 240.899ZM302.897 230.489C301.953 231.419 300.755 232.049 299.454 232.298C298.152 232.547 296.806 232.405 295.586 231.889C294.365 231.373 293.325 230.507 292.597 229.4C291.868 228.293 291.485 226.995 291.494 225.67C291.503 224.345 291.905 223.053 292.649 221.956C293.393 220.86 294.445 220.008 295.673 219.51C296.9 219.011 298.248 218.888 299.546 219.155C300.844 219.423 302.033 220.069 302.963 221.012C303.582 221.639 304.07 222.381 304.401 223.196C304.732 224.012 304.9 224.884 304.894 225.764C304.887 226.645 304.708 227.515 304.365 228.326C304.023 229.136 303.524 229.871 302.897 230.489Z" fill="#9BBB59"/>
<path d="M228.165 231.022H32.4009C31.281 231.022 30.2071 230.577 29.4152 229.785C28.6233 228.994 28.1785 227.92 28.1785 226.8V79.8201C28.1802 78.7008 28.6257 77.6278 29.4171 76.8363C30.2086 76.0449 31.2816 75.5994 32.4009 75.5977H228.165C229.284 75.5994 230.357 76.0449 231.149 76.8363C231.94 77.6278 232.386 78.7008 232.387 79.8201V226.8C232.387 227.92 231.943 228.994 231.151 229.785C230.359 230.577 229.285 231.022 228.165 231.022ZM32.4009 75.924C31.3699 75.9258 30.3816 76.3361 29.6526 77.0651C28.9236 77.7942 28.5132 78.7824 28.5115 79.8134V226.8C28.5132 227.831 28.9236 228.819 29.6526 229.548C30.3816 230.277 31.3699 230.687 32.4009 230.689H228.165C229.196 230.687 230.184 230.277 230.913 229.548C231.642 228.819 232.053 227.831 232.054 226.8V79.8201C232.053 78.7891 231.642 77.8008 230.913 77.0718C230.184 76.3428 229.196 75.9324 228.165 75.9307L32.4009 75.924Z" fill="#E0E0E0"/>
<path d="M37.2427 83.3632C36.783 83.3632 36.3336 83.2269 35.9513 82.9715C35.5691 82.7161 35.2712 82.3531 35.0953 81.9284C34.9193 81.5037 34.8733 81.0363 34.963 80.5854C35.0527 80.1346 35.2741 79.7204 35.5991 79.3953C35.9242 79.0703 36.3383 78.8489 36.7892 78.7592C37.2401 78.6695 37.7074 78.7155 38.1322 78.8915C38.5569 79.0674 38.9199 79.3653 39.1753 79.7475C39.4307 80.1298 39.567 80.5792 39.567 81.0389C39.567 81.6553 39.3221 82.2465 38.8862 82.6824C38.4503 83.1183 37.8591 83.3632 37.2427 83.3632ZM37.2427 79.0475C36.8475 79.0475 36.4612 79.1647 36.1326 79.3843C35.8041 79.6038 35.548 79.9159 35.3968 80.2809C35.2455 80.646 35.206 81.0478 35.2831 81.4353C35.3602 81.8229 35.5505 82.1789 35.8299 82.4583C36.1093 82.7378 36.4653 82.9281 36.8529 83.0052C37.2405 83.0822 37.6422 83.0427 38.0073 82.8915C38.3724 82.7402 38.6844 82.4841 38.904 82.1556C39.1235 81.827 39.2407 81.4407 39.2407 81.0455C39.2407 80.5156 39.0302 80.0074 38.6555 79.6327C38.2808 79.258 37.7726 79.0475 37.2427 79.0475Z" fill="#E0E0E0"/>
<path d="M44.8884 83.3632C44.4287 83.3632 43.9793 83.2269 43.5971 82.9715C43.2149 82.7161 42.9169 82.3531 42.741 81.9284C42.5651 81.5037 42.5191 81.0363 42.6087 80.5854C42.6984 80.1346 42.9198 79.7204 43.2449 79.3953C43.5699 79.0703 43.9841 78.8489 44.435 78.7592C44.8858 78.6695 45.3532 78.7155 45.7779 78.8915C46.2026 79.0674 46.5656 79.3653 46.821 79.7475C47.0764 80.1298 47.2128 80.5792 47.2128 81.0389C47.2128 81.6553 46.9679 82.2465 46.532 82.6824C46.0961 83.1183 45.5049 83.3632 44.8884 83.3632ZM44.8884 79.0475C44.4933 79.0475 44.107 79.1647 43.7784 79.3843C43.4498 79.6038 43.1937 79.9159 43.0425 80.2809C42.8913 80.646 42.8517 81.0478 42.9288 81.4353C43.0059 81.8229 43.1962 82.1789 43.4756 82.4583C43.7551 82.7378 44.1111 82.9281 44.4986 83.0052C44.8862 83.0822 45.2879 83.0427 45.653 82.8915C46.0181 82.7402 46.3302 82.4841 46.5497 82.1556C46.7692 81.827 46.8864 81.4407 46.8864 81.0455C46.8864 80.5156 46.6759 80.0074 46.3012 79.6327C45.9265 79.258 45.4183 79.0475 44.8884 79.0475Z" fill="#E0E0E0"/>
<path d="M52.5341 83.3632C52.0743 83.3632 51.625 83.2269 51.2427 82.9715C50.8605 82.7161 50.5626 82.3531 50.3866 81.9284C50.2107 81.5037 50.1647 81.0363 50.2544 80.5854C50.3441 80.1346 50.5654 79.7204 50.8905 79.3953C51.2156 79.0703 51.6297 78.8489 52.0806 78.7592C52.5315 78.6695 52.9988 78.7155 53.4235 78.8915C53.8483 79.0674 54.2113 79.3653 54.4667 79.7475C54.7221 80.1298 54.8584 80.5792 54.8584 81.0389C54.8584 81.6553 54.6135 82.2465 54.1776 82.6824C53.7417 83.1183 53.1505 83.3632 52.5341 83.3632ZM52.5341 79.0475C52.1389 79.0475 51.7526 79.1647 51.424 79.3843C51.0955 79.6038 50.8394 79.9159 50.6881 80.2809C50.5369 80.646 50.4974 81.0478 50.5744 81.4353C50.6515 81.8229 50.8418 82.1789 51.1213 82.4583C51.4007 82.7378 51.7567 82.9281 52.1443 83.0052C52.5318 83.0822 52.9336 83.0427 53.2987 82.8915C53.6637 82.7402 53.9758 82.4841 54.1953 82.1556C54.4149 81.827 54.5321 81.4407 54.5321 81.0455C54.5321 80.5156 54.3216 80.0074 53.9469 79.6327C53.5722 79.258 53.064 79.0475 52.5341 79.0475Z" fill="#E0E0E0"/>
<path opacity="0.75" d="M305.914 47.639H110.15C107.91 47.639 106.094 49.4549 106.094 51.6949V198.674C106.094 200.914 107.91 202.73 110.15 202.73H305.914C308.154 202.73 309.97 200.914 309.97 198.674V51.6949C309.97 49.4549 308.154 47.639 305.914 47.639Z" fill="#9BBB59"/>
<path d="M305.914 203.396H110.15C108.898 203.395 107.698 202.897 106.813 202.011C105.928 201.126 105.429 199.926 105.428 198.674V51.6949C105.429 50.4431 105.928 49.2431 106.813 48.3579C107.698 47.4728 108.898 46.9747 110.15 46.973H305.914C307.165 46.9747 308.366 47.4728 309.251 48.3579C310.136 49.2431 310.634 50.4431 310.636 51.6949V198.674C310.634 199.926 310.136 201.126 309.251 202.011C308.366 202.897 307.165 203.395 305.914 203.396ZM110.15 48.305C109.251 48.3067 108.39 48.6645 107.755 49.2998C107.119 49.9352 106.761 50.7964 106.76 51.6949V198.674C106.761 199.573 107.119 200.434 107.755 201.07C108.39 201.705 109.251 202.063 110.15 202.064H305.914C306.812 202.063 307.673 201.705 308.309 201.07C308.944 200.434 309.302 199.573 309.304 198.674V51.6949C309.304 50.7959 308.946 49.9336 308.311 49.2979C307.675 48.6621 306.813 48.305 305.914 48.305H110.15Z" fill="#E0E0E0"/>
<path opacity="0.4" d="M106.094 58.1285V198.654C106.097 199.729 106.526 200.759 107.286 201.519C108.045 202.278 109.075 202.707 110.15 202.71H305.914C306.988 202.707 308.018 202.278 308.778 201.519C309.538 200.759 309.966 199.729 309.97 198.654V58.1285H106.094Z" fill="#F6F6F6"/>
<path d="M309.224 63.5231H106.846V197.336H309.224V63.5231Z" fill="white"/>
<path d="M302.064 185.088H114.006C113.997 185.089 113.988 185.088 113.979 185.085C113.971 185.082 113.963 185.077 113.956 185.071C113.95 185.065 113.945 185.057 113.942 185.048C113.939 185.04 113.938 185.03 113.939 185.021V72.1944C113.939 72.1767 113.946 72.1598 113.959 72.1473C113.971 72.1348 113.988 72.1278 114.006 72.1278H302.064C302.081 72.1293 302.098 72.1368 302.11 72.149C302.122 72.1612 302.129 72.1773 302.131 72.1944V185.021C302.131 185.03 302.129 185.039 302.126 185.047C302.122 185.055 302.118 185.062 302.111 185.069C302.105 185.075 302.098 185.08 302.09 185.083C302.082 185.086 302.073 185.088 302.064 185.088ZM114.072 184.955H301.998V72.2677H114.072V184.955Z" fill="#E6E6E6"/>
<path d="M114.992 55.3379C114.512 55.3366 114.044 55.1933 113.647 54.9262C113.249 54.659 112.939 54.2799 112.757 53.8368C112.574 53.3937 112.527 52.9065 112.621 52.4367C112.716 51.9669 112.947 51.5355 113.286 51.1972C113.626 50.8588 114.058 50.6286 114.528 50.5356C114.998 50.4426 115.485 50.491 115.927 50.6746C116.37 50.8583 116.748 51.1691 117.014 51.5676C117.28 51.9661 117.422 52.4345 117.422 52.9137C117.422 53.2326 117.36 53.5484 117.237 53.843C117.115 54.1375 116.936 54.4051 116.71 54.6303C116.484 54.8555 116.216 55.0339 115.921 55.1553C115.626 55.2768 115.31 55.3388 114.992 55.3379ZM114.992 51.0289C114.619 51.0302 114.255 51.1419 113.946 51.3498C113.637 51.5577 113.397 51.8525 113.255 52.197C113.113 52.5416 113.077 52.9203 113.15 53.2855C113.224 53.6507 113.404 53.9859 113.668 54.2488C113.932 54.5117 114.268 54.6906 114.633 54.7627C114.998 54.8349 115.377 54.7972 115.721 54.6544C116.065 54.5115 116.359 54.2699 116.566 53.9601C116.773 53.6503 116.883 53.2862 116.883 52.9137C116.883 52.6656 116.834 52.42 116.739 52.1909C116.644 51.9618 116.504 51.7537 116.329 51.5786C116.153 51.4035 115.944 51.2648 115.715 51.1705C115.485 51.0762 115.24 51.0281 114.992 51.0289Z" fill="white"/>
<path d="M122.637 55.3379C122.158 55.3366 121.69 55.1933 121.292 54.9262C120.895 54.659 120.585 54.2799 120.402 53.8368C120.22 53.3937 120.173 52.9065 120.267 52.4367C120.361 51.9669 120.593 51.5355 120.932 51.1972C121.271 50.8588 121.703 50.6286 122.173 50.5356C122.644 50.4426 123.131 50.491 123.573 50.6746C124.016 50.8583 124.394 51.1691 124.66 51.5676C124.926 51.9661 125.068 52.4345 125.068 52.9137C125.068 53.2326 125.005 53.5484 124.883 53.843C124.761 54.1375 124.582 54.4051 124.356 54.6303C124.13 54.8555 123.862 55.0339 123.567 55.1553C123.272 55.2768 122.956 55.3388 122.637 55.3379ZM122.637 51.0289C122.265 51.0329 121.903 51.1468 121.596 51.3562C121.288 51.5657 121.05 51.8614 120.91 52.2062C120.771 52.5509 120.736 52.9292 120.811 53.2935C120.886 53.6578 121.067 53.9918 121.332 54.2534C121.596 54.515 121.932 54.6925 122.297 54.7636C122.662 54.8347 123.04 54.7962 123.383 54.653C123.726 54.5098 124.02 54.2682 124.226 53.9587C124.432 53.6492 124.542 53.2856 124.542 52.9137C124.542 52.6645 124.493 52.4178 124.397 52.1878C124.301 51.9578 124.16 51.7491 123.983 51.5739C123.806 51.3986 123.596 51.2602 123.365 51.1666C123.134 51.0731 122.886 51.0263 122.637 51.0289Z" fill="white"/>
<path d="M130.283 55.3379C129.804 55.3366 129.336 55.1933 128.938 54.9262C128.54 54.659 128.23 54.2799 128.048 53.8368C127.866 53.3937 127.818 52.9065 127.913 52.4367C128.007 51.9669 128.238 51.5355 128.578 51.1972C128.917 50.8588 129.349 50.6286 129.819 50.5356C130.289 50.4426 130.776 50.491 131.219 50.6746C131.661 50.8583 132.04 51.1691 132.306 51.5676C132.572 51.9661 132.714 52.4345 132.714 52.9137C132.714 53.2326 132.651 53.5484 132.529 53.843C132.406 54.1375 132.227 54.4051 132.001 54.6303C131.776 54.8555 131.508 55.0339 131.213 55.1553C130.918 55.2768 130.602 55.3388 130.283 55.3379ZM130.283 51.0289C129.91 51.0302 129.547 51.1419 129.238 51.3498C128.929 51.5577 128.688 51.8525 128.546 52.197C128.405 52.5416 128.368 52.9203 128.442 53.2855C128.515 53.6507 128.695 53.9859 128.959 54.2488C129.223 54.5117 129.559 54.6906 129.924 54.7627C130.29 54.8349 130.668 54.7972 131.012 54.6544C131.356 54.5115 131.65 54.2699 131.857 53.9601C132.064 53.6503 132.174 53.2862 132.174 52.9137C132.174 52.6656 132.125 52.42 132.03 52.1909C131.935 51.9618 131.796 51.7537 131.62 51.5786C131.444 51.4035 131.236 51.2648 131.006 51.1705C130.777 51.0762 130.531 51.0281 130.283 51.0289Z" fill="white"/>
<path d="M309.97 57.8554H106.094V58.3949H309.97V57.8554Z" fill="#E0E0E0"/>
<path d="M198.548 171.875H291.815V76.8164L198.548 76.8164V171.875Z" fill="#F0F0F0"/>
<path d="M118.615 107.739L180.193 107.739V76.8165H118.615V107.739Z" fill="#F0F0F0"/>
<path d="M118.615 197.336H180.193V119.301L118.615 119.301V197.336Z" fill="#F0F0F0"/>
<path d="M166.5 284.755C237.817 284.755 295.631 281.38 295.631 277.216C295.631 273.052 237.817 269.677 166.5 269.677C95.1831 269.677 37.3693 273.052 37.3693 277.216C37.3693 281.38 95.1831 284.755 166.5 284.755Z" fill="#F5F5F5"/>
<path d="M285.974 64.4621H47.0329C45.3364 64.4674 43.7109 65.1432 42.5107 66.3421C41.3105 67.5411 40.633 69.166 40.626 70.8624V230.343C40.6313 232.04 41.3082 233.666 42.5088 234.865C43.7093 236.064 45.3359 236.739 47.0329 236.743H285.974C287.67 236.738 289.294 236.062 290.494 234.863C291.693 233.663 292.369 232.039 292.374 230.343V70.8624C292.367 69.1671 291.69 67.5432 290.492 66.3445C289.293 65.1457 287.669 64.4692 285.974 64.4621Z" fill="#B872A2"/>
<path opacity="0.3" d="M285.974 64.4621H47.0329C45.3364 64.4674 43.7109 65.1432 42.5107 66.3421C41.3105 67.5411 40.633 69.166 40.626 70.8624V230.343C40.6313 232.04 41.3082 233.666 42.5088 234.865C43.7093 236.064 45.3359 236.74 47.0329 236.743H285.974C287.67 236.738 289.294 236.062 290.494 234.863C291.693 233.663 292.369 232.039 292.374 230.343V70.8624C292.367 69.1671 291.69 67.5432 290.492 66.3445C289.293 65.1457 287.669 64.4692 285.974 64.4621Z" fill="white"/>
<path d="M88.205 75.1448H54.3856C53.7673 75.1448 53.1744 74.8992 52.7373 74.4621C52.3002 74.0249 52.0546 73.432 52.0546 72.8138C52.0546 72.1956 52.3002 71.6027 52.7373 71.1655C53.1744 70.7284 53.7673 70.4828 54.3856 70.4828H88.205C88.8233 70.4828 89.4162 70.7284 89.8533 71.1655C90.2905 71.6027 90.536 72.1956 90.536 72.8138C90.536 73.432 90.2905 74.0249 89.8533 74.4621C89.4162 74.8992 88.8233 75.1448 88.205 75.1448ZM54.3856 71.1488C53.944 71.1488 53.5205 71.3242 53.2082 71.6365C52.896 71.9487 52.7206 72.3722 52.7206 72.8138C52.7206 73.2554 52.896 73.6789 53.2082 73.9911C53.5205 74.3034 53.944 74.4788 54.3856 74.4788H88.205C88.6466 74.4788 89.0701 74.3034 89.3824 73.9911C89.6946 73.6789 89.87 73.2554 89.87 72.8138C89.87 72.3722 89.6946 71.9487 89.3824 71.6365C89.0701 71.3242 88.6466 71.1488 88.205 71.1488H54.3856Z" fill="#FAFAFA"/>
<path d="M99.1807 75.1448H96.9229C96.3047 75.1448 95.7118 74.8992 95.2747 74.4621C94.8375 74.0249 94.5919 73.432 94.5919 72.8138C94.5919 72.1956 94.8375 71.6027 95.2747 71.1655C95.7118 70.7284 96.3047 70.4828 96.9229 70.4828H99.1807C99.7989 70.4828 100.392 70.7284 100.829 71.1655C101.266 71.6027 101.512 72.1956 101.512 72.8138C101.512 73.432 101.266 74.0249 100.829 74.4621C100.392 74.8992 99.7989 75.1448 99.1807 75.1448ZM96.9229 71.1488C96.4813 71.1488 96.0578 71.3242 95.7456 71.6365C95.4333 71.9487 95.2579 72.3722 95.2579 72.8138C95.2579 73.2554 95.4333 73.6789 95.7456 73.9911C96.0578 74.3034 96.4813 74.4788 96.9229 74.4788H99.1807C99.6222 74.4788 100.046 74.3034 100.358 73.9911C100.67 73.6789 100.846 73.2554 100.846 72.8138C100.846 72.3722 100.67 71.9487 100.358 71.6365C100.046 71.3242 99.6222 71.1488 99.1807 71.1488H96.9229Z" fill="#FAFAFA"/>
<path d="M108.618 75.1448H106.36C105.742 75.1448 105.149 74.8992 104.712 74.4621C104.275 74.0249 104.029 73.432 104.029 72.8138C104.029 72.1956 104.275 71.6027 104.712 71.1655C105.149 70.7284 105.742 70.4828 106.36 70.4828H108.618C109.236 70.4828 109.829 70.7284 110.266 71.1655C110.703 71.6027 110.949 72.1956 110.949 72.8138C110.949 73.432 110.703 74.0249 110.266 74.4621C109.829 74.8992 109.236 75.1448 108.618 75.1448ZM106.36 71.1488C105.919 71.1488 105.495 71.3242 105.183 71.6365C104.871 71.9487 104.695 72.3722 104.695 72.8138C104.695 73.2554 104.871 73.6789 105.183 73.9911C105.495 74.3034 105.919 74.4788 106.36 74.4788H108.618C109.059 74.4788 109.483 74.3034 109.795 73.9911C110.108 73.6789 110.283 73.2554 110.283 72.8138C110.283 72.3722 110.108 71.9487 109.795 71.6365C109.483 71.3242 109.059 71.1488 108.618 71.1488H106.36Z" fill="#FAFAFA"/>
<path d="M40.626 81.0189V230.343C40.6313 232.04 41.3082 233.666 42.5088 234.865C43.7093 236.064 45.3359 236.74 47.0329 236.743H285.974C287.67 236.738 289.294 236.062 290.494 234.863C291.693 233.663 292.369 232.039 292.374 230.343V81.0189H40.626Z" fill="#B872A2"/>
<path opacity="0.6" d="M40.626 81.0189V230.343C40.6313 232.04 41.3082 233.666 42.5088 234.865C43.7093 236.064 45.3359 236.74 47.0329 236.743H285.974C287.67 236.738 289.294 236.062 290.494 234.863C291.693 233.663 292.369 232.039 292.374 230.343V81.0189H40.626Z" fill="white"/>
<path d="M41.8114 81.0189V224.595C41.8105 225.072 41.9038 225.545 42.0858 225.986C42.2678 226.427 42.535 226.828 42.8722 227.166C43.2093 227.504 43.6097 227.772 44.0505 227.955C44.4913 228.137 44.9639 228.232 45.4411 228.232H287.559C288.036 228.232 288.508 228.137 288.949 227.955C289.39 227.772 289.791 227.504 290.128 227.166C290.465 226.828 290.732 226.427 290.914 225.986C291.096 225.545 291.189 225.072 291.188 224.595V81.0189H41.8114Z" fill="#FAFAFA"/>
<path d="M53.28 89.4704V116.11H224.442V89.4704H53.28Z" fill="#B872A2"/>
<path opacity="0.9" d="M53.28 89.4704V116.11H224.442V89.4704H53.28Z" fill="white"/>
<path d="M223.776 123.836V194.565H53.946V123.836H223.776ZM224.442 123.17H53.28V195.231H224.442V123.17Z" fill="#B872A2"/>
<path opacity="0.9" d="M223.776 123.836V194.565H53.946V123.836H223.776ZM224.442 123.17H53.28V195.231H224.442V123.17Z" fill="white"/>
<path d="M243.636 271.022H238.615L237.276 259.387H242.304L243.636 271.022Z" fill="#FF8B7B"/>
<path d="M274.112 271.022H269.091L265.175 259.387H270.196L274.112 271.022Z" fill="#FF8B7B"/>
<path d="M268.398 270.436H274.525C274.625 270.437 274.722 270.471 274.799 270.534C274.877 270.597 274.93 270.685 274.951 270.782L275.944 275.244C275.968 275.353 275.967 275.466 275.941 275.575C275.916 275.684 275.866 275.785 275.795 275.871C275.725 275.958 275.636 276.027 275.534 276.074C275.433 276.122 275.323 276.145 275.211 276.144C273.213 276.11 271.801 275.99 269.317 275.99C267.792 275.99 264.655 276.15 262.537 276.15C260.419 276.15 260.153 274.066 261.012 273.879C264.888 273.027 266.34 271.881 267.585 270.749C267.808 270.548 268.098 270.436 268.398 270.436Z" fill="#263238"/>
<path d="M238.648 270.436H244.136C244.236 270.436 244.334 270.471 244.412 270.534C244.491 270.597 244.546 270.684 244.569 270.782L245.561 275.244C245.585 275.353 245.584 275.465 245.559 275.573C245.533 275.681 245.484 275.782 245.414 275.869C245.345 275.955 245.256 276.025 245.156 276.072C245.056 276.12 244.946 276.144 244.835 276.144C242.837 276.11 239.993 275.99 237.509 275.99C234.599 275.99 232.088 276.15 228.678 276.15C226.613 276.15 226.014 274.066 226.906 273.879C230.836 273.013 234.046 272.927 237.442 270.829C237.8 270.588 238.217 270.452 238.648 270.436Z" fill="#263238"/>
<path d="M246.52 146.353C246.02 150.243 245.474 154.152 244.895 158.042L243.157 169.87C242.887 171.308 242.31 172.671 241.465 173.866C240.7 174.94 239.775 175.89 238.721 176.683C236.864 178.037 234.799 179.081 232.607 179.773C230.595 180.433 228.529 180.919 226.433 181.225C225.401 181.385 224.375 181.492 223.343 181.578C222.311 181.665 221.312 181.718 220.213 181.718L219.873 177.962C221.665 177.549 223.563 177.069 225.341 176.477C227.103 175.929 228.825 175.261 230.496 174.479C232.017 173.79 233.429 172.881 234.685 171.781C235.177 171.335 235.597 170.816 235.931 170.243C236.182 169.794 236.339 169.297 236.39 168.784L236.583 165.981C236.65 164.982 236.743 163.983 236.83 162.997C237.003 161.012 237.2 159.032 237.422 157.056C237.855 153.107 238.368 149.184 238.981 145.248L246.52 146.353Z" fill="#FF8B7B"/>
<path d="M248.178 143.856C249.87 148.352 245.814 163.423 245.814 163.423L234.652 157.842C234.652 157.842 235.178 150.33 237.729 144.522C240.28 138.714 246.32 138.901 248.178 143.856Z" fill="#B872A2"/>
<path opacity="0.3" d="M248.178 143.856C249.87 148.352 245.814 163.423 245.814 163.423L234.652 157.842C234.652 157.842 235.178 150.33 237.729 144.522C240.28 138.714 246.32 138.901 248.178 143.856Z" fill="black"/>
<path d="M222.544 177.502L217.063 177.869L219.627 183.749C220.656 183.72 221.649 183.363 222.46 182.729C223.272 182.095 223.859 181.218 224.136 180.226L222.544 177.502Z" fill="#FF8B7B"/>
<path d="M212.114 180.18L215.158 184.296L219.62 183.749L217.063 177.869L212.114 180.18Z" fill="#FF8B7B"/>
<path d="M237.282 259.387L238.055 266.14L243.05 265.841L242.304 259.387H237.282Z" fill="#EA7063"/>
<path d="M270.203 259.387H265.175L267.799 267.179L272.474 266.134L270.203 259.387Z" fill="#EA7063"/>
<path d="M242.211 140.393C242.211 140.393 236.284 155.564 241.911 183.823H268.784C268.971 179.693 266.38 159.574 270.356 140.133C267.387 139.56 264.384 139.182 261.365 139.001C257.559 138.778 253.743 138.778 249.937 139.001C247.329 139.262 244.746 139.728 242.211 140.393Z" fill="#B872A2"/>
<path opacity="0.3" d="M242.211 140.393C242.211 140.393 236.284 155.564 241.911 183.823H268.784C268.971 179.693 266.38 159.574 270.356 140.133C267.387 139.56 264.384 139.182 261.365 139.001C257.559 138.778 253.743 138.778 249.937 139.001C247.329 139.262 244.746 139.728 242.211 140.393Z" fill="black"/>
<path d="M252.028 154.592C251.668 157.962 249.817 160.533 247.885 160.326C245.954 160.12 244.682 157.223 245.035 153.846C245.388 150.469 247.253 147.905 249.177 148.105C251.102 148.305 252.414 151.215 252.028 154.592Z" fill="#B872A2"/>
<path opacity="0.1" d="M252.028 154.592C251.668 157.962 249.817 160.533 247.885 160.326C245.954 160.12 244.682 157.223 245.035 153.846C245.388 150.469 247.253 147.905 249.177 148.105C251.102 148.305 252.414 151.215 252.028 154.592Z" fill="white"/>
<path d="M264.882 149.424C265.761 144.988 267.466 145.754 269.091 147.939C268.396 153.82 268.076 159.739 268.132 165.661C267.026 163.783 263.416 156.856 264.882 149.424Z" fill="#B872A2"/>
<path opacity="0.4" d="M264.882 149.424C265.761 144.988 267.466 145.754 269.091 147.939C268.396 153.82 268.076 159.739 268.132 165.661C267.026 163.783 263.416 156.856 264.882 149.424Z" fill="black"/>
<path d="M260.233 126.134C259.514 129.81 258.794 136.543 261.365 139.001C261.365 139.001 260.359 142.724 253.526 142.724C246.02 142.724 249.937 139.001 249.937 139.001C254.039 138.022 253.933 135.005 253.22 132.121L260.233 126.134Z" fill="#FF8B7B"/>
<path d="M257.369 128.578L253.22 132.121C253.397 132.775 253.515 133.444 253.573 134.119C255.138 133.893 257.289 132.174 257.456 130.536C257.549 129.884 257.52 129.219 257.369 128.578Z" fill="#EA7063"/>
<path d="M249.75 112.374C246.986 114.525 247.006 123.11 251.195 123.29C255.384 123.47 255.005 108.312 249.75 112.374Z" fill="#263238"/>
<path d="M261.298 121.791C259.84 126.56 259.227 129.424 256.184 131.322C251.615 134.179 246.194 130.529 246.194 125.421C246.194 120.819 248.585 113.799 253.786 113.007C254.93 112.831 256.1 112.95 257.185 113.353C258.27 113.756 259.235 114.429 259.987 115.308C260.739 116.188 261.255 117.245 261.484 118.38C261.714 119.514 261.65 120.689 261.298 121.791Z" fill="#FF8B7B"/>
<path d="M259.82 126.453C257.016 126.893 255.484 112.467 262.171 115.658C271.675 120.206 264.362 125.747 259.82 126.453Z" fill="#263238"/>
<path d="M260.086 116.983C256.63 116.683 251.628 116.83 250.543 112.561C249.031 106.607 256.15 105.727 257.909 110.283C262.144 108.891 273.813 116.164 266.04 119.853L260.086 116.983Z" fill="#263238"/>
<path d="M262.204 127.652C261.302 128.522 260.094 129.001 258.841 128.984C257.183 128.951 256.843 127.353 257.682 126.034C258.461 124.842 260.26 123.43 261.731 124.102C263.203 124.775 263.29 126.54 262.204 127.652Z" fill="#FF8B7B"/>
<path d="M241.911 183.816C241.911 183.816 222.317 210.969 222.87 226.287C223.436 242.224 236.084 264.249 236.084 264.249L244.255 262.377C244.255 262.377 236.124 243.19 236.503 227.539C236.916 210.476 259.58 197.009 259.58 183.849L241.911 183.816Z" fill="#263238"/>
<path d="M251.448 183.816C251.448 183.816 241.458 211.788 244.595 226.18C248.018 241.931 265.241 265.208 265.241 265.208L273.466 262.943C273.466 262.943 262.331 242.917 260.379 227.319C258.255 210.396 268.811 196.403 268.811 183.816H251.448Z" fill="#263238"/>
<path d="M263.989 266.353L275.817 264.156L275.225 260.979L261.964 263.223L263.989 266.353Z" fill="#B872A2"/>
<path opacity="0.4" d="M263.989 266.353L275.817 264.156L275.225 260.979L261.964 263.223L263.989 266.353Z" fill="white"/>
<path d="M234.379 264.935L246.347 263.756L246.027 260.493L232.627 261.645L234.379 264.935Z" fill="#B872A2"/>
<path opacity="0.4" d="M234.379 264.935L246.347 263.756L246.027 260.493L232.627 261.645L234.379 264.935Z" fill="white"/>
<path d="M253.633 121.385C253.54 121.778 253.253 122.051 252.967 121.985C252.68 121.918 252.574 121.552 252.674 121.159C252.774 120.766 253.053 120.493 253.307 120.559C253.56 120.626 253.746 120.992 253.633 121.385Z" fill="#263238"/>
<path d="M249.177 120.313C249.084 120.706 248.798 120.979 248.511 120.919C248.225 120.859 248.125 120.486 248.218 120.093C248.311 119.7 248.598 119.427 248.884 119.487C249.171 119.547 249.27 119.92 249.177 120.313Z" fill="#263238"/>
<path d="M250.543 120.852C249.793 121.942 248.896 122.924 247.879 123.769C248.102 124.027 248.378 124.232 248.689 124.371C248.999 124.51 249.336 124.58 249.677 124.575L250.543 120.852Z" fill="#FF5652"/>
<path d="M251.428 126.047C251.128 126.045 250.829 126.01 250.536 125.941C250.506 125.931 250.48 125.911 250.464 125.884C250.448 125.857 250.443 125.825 250.449 125.794C250.453 125.779 250.46 125.764 250.47 125.752C250.479 125.739 250.491 125.728 250.505 125.72C250.518 125.712 250.533 125.707 250.549 125.705C250.565 125.703 250.581 125.704 250.596 125.708C251.084 125.836 251.595 125.848 252.088 125.742C252.581 125.635 253.042 125.414 253.433 125.095C253.455 125.073 253.485 125.061 253.516 125.061C253.547 125.061 253.577 125.073 253.6 125.095C253.611 125.105 253.62 125.118 253.627 125.133C253.633 125.147 253.636 125.162 253.636 125.178C253.636 125.194 253.633 125.209 253.627 125.223C253.62 125.238 253.611 125.251 253.6 125.261C252.993 125.774 252.223 126.053 251.428 126.047Z" fill="#263238"/>
<path d="M255.371 120.273C255.326 120.273 255.282 120.26 255.244 120.235C255.206 120.21 255.176 120.175 255.158 120.133C255.046 119.856 254.87 119.61 254.644 119.414C254.418 119.219 254.149 119.079 253.859 119.008C253.797 118.997 253.741 118.962 253.704 118.91C253.667 118.858 253.652 118.794 253.663 118.731C253.673 118.668 253.708 118.613 253.76 118.576C253.812 118.539 253.876 118.524 253.939 118.535C254.307 118.619 254.649 118.791 254.937 119.035C255.224 119.28 255.449 119.59 255.591 119.94C255.604 119.968 255.611 119.999 255.613 120.03C255.614 120.062 255.608 120.093 255.597 120.122C255.586 120.151 255.569 120.178 255.547 120.2C255.526 120.223 255.5 120.241 255.471 120.253C255.44 120.269 255.406 120.276 255.371 120.273Z" fill="#263238"/>
<path d="M247.652 118.322C247.596 118.323 247.542 118.304 247.499 118.268C247.474 118.249 247.454 118.225 247.439 118.197C247.424 118.17 247.415 118.14 247.412 118.109C247.409 118.078 247.412 118.046 247.421 118.017C247.43 117.987 247.445 117.959 247.466 117.935C247.701 117.634 248.005 117.394 248.353 117.237C248.701 117.079 249.082 117.008 249.464 117.03C249.526 117.038 249.583 117.07 249.622 117.12C249.66 117.17 249.678 117.233 249.67 117.296C249.662 117.357 249.63 117.413 249.582 117.451C249.533 117.49 249.472 117.508 249.41 117.502C249.111 117.495 248.815 117.557 248.544 117.684C248.274 117.811 248.037 118 247.852 118.235C247.829 118.265 247.798 118.289 247.763 118.304C247.728 118.319 247.69 118.325 247.652 118.322Z" fill="#263238"/>
<path d="M182.14 214.647L164.112 216.794L164.191 217.455L182.219 215.309L182.14 214.647Z" fill="#B872A2"/>
<path d="M195.996 212.98L188.571 213.873L188.65 214.534L196.076 213.642L195.996 212.98Z" fill="#B872A2"/>
<path d="M298.859 170.381L138.966 189.447L142.336 217.705L302.229 198.639L298.859 170.381Z" fill="#B872A2"/>
<path d="M275.252 180.942L201.799 189.7L203.347 202.682L276.8 193.923L275.252 180.942Z" fill="#D9AECC"/>
<path opacity="0.2" d="M275.252 180.942L201.799 189.7L203.347 202.682L276.8 193.923L275.252 180.942Z" fill="white"/>
<path d="M163.103 207.965C166.675 205.105 167.252 199.891 164.393 196.319C161.533 192.747 156.319 192.17 152.747 195.029C149.175 197.889 148.598 203.103 151.457 206.675C154.317 210.247 159.531 210.824 163.103 207.965Z" fill="#9BBB59"/>
<path opacity="0.2" d="M163.103 207.965C166.675 205.105 167.252 199.891 164.393 196.319C161.533 192.747 156.319 192.17 152.747 195.029C149.175 197.889 148.598 203.103 151.457 206.675C154.317 210.247 159.531 210.824 163.103 207.965Z" fill="#9BBB59"/>
<path d="M187.925 203.793C190.713 200.165 190.033 194.963 186.405 192.175C182.778 189.386 177.576 190.066 174.788 193.694C171.999 197.322 172.679 202.523 176.307 205.312C179.934 208.101 185.136 207.42 187.925 203.793Z" fill="#F6F6F6"/>
<path opacity="0.2" d="M187.925 203.793C190.713 200.165 190.033 194.963 186.405 192.175C182.778 189.386 177.576 190.066 174.788 193.694C171.999 197.322 172.679 202.523 176.307 205.312C179.934 208.101 185.136 207.42 187.925 203.793Z" fill="#F6F6F6"/>
<path d="M272.274 144.042C272.714 144.975 273.073 145.801 273.42 146.706C273.766 147.612 274.086 148.458 274.432 149.37C275.098 151.135 275.651 152.927 276.15 154.758C276.668 156.598 277.093 158.463 277.422 160.346L277.662 161.778L277.835 163.237C277.902 163.723 277.928 164.222 277.962 164.715L278.015 165.461V165.648V165.954C278.015 166.194 278.015 166.4 278.015 166.62C277.884 167.93 277.504 169.202 276.896 170.369C276.427 171.309 275.893 172.215 275.298 173.08C274.197 174.662 272.993 176.171 271.695 177.596C269.188 180.35 266.471 182.906 263.57 185.241L260.906 182.577C263.077 179.8 265.248 176.93 267.213 174.079C268.177 172.694 269.066 171.258 269.877 169.777C270.248 169.113 270.571 168.423 270.842 167.712C271.033 167.257 271.145 166.773 271.175 166.28C271.175 166.247 271.175 166.28 271.175 166.28C271.175 166.314 271.175 166.32 271.175 166.28V166.127L271.082 165.528C271.022 165.121 270.969 164.728 270.876 164.316L270.636 163.103L270.349 161.878C269.943 160.246 269.484 158.608 268.957 156.976C268.431 155.344 267.859 153.713 267.252 152.088C266.953 151.275 266.646 150.469 266.327 149.664L265.348 147.186L272.274 144.042Z" fill="#FF8B7B"/>
<path d="M271.408 140.466C275.891 142.191 279.107 158.588 279.107 158.588L268.451 162.79C268.451 162.79 264.875 154.552 263.669 148.458C262.404 142.044 266.32 138.528 271.408 140.466Z" fill="#B872A2"/>
<path opacity="0.3" d="M271.408 140.466C275.891 142.191 279.107 158.588 279.107 158.588L268.451 162.79C268.451 162.79 264.875 154.552 263.669 148.458C262.404 142.044 266.32 138.528 271.408 140.466Z" fill="black"/>
<path d="M266.76 271.315C266.416 271.34 266.075 271.251 265.787 271.062C265.698 270.984 265.629 270.886 265.586 270.776C265.543 270.666 265.528 270.547 265.541 270.429C265.54 270.36 265.559 270.292 265.596 270.233C265.632 270.174 265.685 270.127 265.747 270.096C266.307 269.81 267.925 270.802 268.105 270.922C268.126 270.933 268.143 270.951 268.152 270.973C268.162 270.995 268.164 271.019 268.158 271.042C268.155 271.064 268.145 271.085 268.129 271.102C268.114 271.119 268.094 271.13 268.072 271.135C267.643 271.245 267.202 271.306 266.76 271.315ZM266.014 270.276C265.958 270.271 265.903 270.283 265.854 270.309C265.821 270.309 265.787 270.356 265.781 270.449C265.769 270.528 265.778 270.608 265.806 270.683C265.834 270.757 265.88 270.824 265.94 270.876C266.501 271.135 267.14 271.168 267.725 270.969C267.204 270.631 266.623 270.396 266.014 270.276Z" fill="#B872A2"/>
<path d="M268.045 271.142C268.026 271.148 268.005 271.148 267.985 271.142C267.466 270.862 266.46 269.763 266.567 269.204C266.584 269.116 266.631 269.036 266.7 268.979C266.769 268.922 266.856 268.891 266.946 268.891C267.037 268.88 267.128 268.889 267.215 268.915C267.302 268.941 267.383 268.985 267.452 269.044C268.038 269.517 268.158 270.969 268.165 271.042C268.165 271.064 268.161 271.085 268.152 271.105C268.142 271.125 268.129 271.142 268.112 271.155C268.089 271.157 268.066 271.152 268.045 271.142ZM267.066 269.104H267.006C266.853 269.104 266.84 269.197 266.833 269.224C266.773 269.557 267.412 270.389 267.932 270.782C267.896 270.209 267.689 269.659 267.339 269.204C267.262 269.141 267.166 269.106 267.066 269.104Z" fill="#B872A2"/>
<path d="M236.563 271.315C236.132 271.354 235.7 271.246 235.338 271.009C235.257 270.937 235.195 270.847 235.156 270.746C235.118 270.645 235.105 270.536 235.118 270.429C235.121 270.364 235.14 270.3 235.173 270.245C235.207 270.189 235.255 270.142 235.311 270.11C235.924 269.77 237.942 270.776 238.175 270.915C238.196 270.927 238.213 270.945 238.223 270.966C238.234 270.988 238.238 271.012 238.235 271.035C238.232 271.06 238.222 271.083 238.205 271.101C238.188 271.119 238.166 271.131 238.142 271.135C237.622 271.245 237.094 271.305 236.563 271.315ZM235.651 270.276C235.575 270.271 235.499 270.287 235.431 270.323C235.408 270.335 235.388 270.353 235.374 270.375C235.36 270.397 235.352 270.423 235.351 270.449C235.344 270.52 235.354 270.591 235.379 270.656C235.405 270.722 235.445 270.781 235.498 270.829C235.804 271.102 236.637 271.155 237.742 270.969C237.09 270.62 236.382 270.386 235.651 270.276Z" fill="#B872A2"/>
<path d="M238.115 271.142H238.068C237.462 270.869 236.264 269.81 236.35 269.217C236.35 269.084 236.47 268.917 236.796 268.884C236.915 268.869 237.036 268.879 237.151 268.913C237.265 268.948 237.372 269.006 237.462 269.084C238.128 269.61 238.235 270.962 238.242 271.022C238.245 271.042 238.242 271.063 238.234 271.082C238.226 271.101 238.212 271.117 238.195 271.129C238.17 271.141 238.142 271.145 238.115 271.142ZM236.89 269.104H236.823C236.603 269.104 236.59 269.211 236.59 269.237C236.53 269.583 237.349 270.436 237.969 270.809C237.911 270.236 237.678 269.694 237.303 269.257C237.189 269.157 237.041 269.102 236.89 269.104Z" fill="#B872A2"/>
<path d="M262.071 181.818L257.143 183.15L261.225 188.098C261.225 188.098 265.175 186.054 264.322 183.836L262.071 181.818Z" fill="#FF8B7B"/>
<path d="M253.573 187.259L257.143 191.135L261.225 188.092L257.143 183.143L253.573 187.259Z" fill="#FF8B7B"/>
<path d="M94.3256 128.538C93.2134 129.67 92.0213 130.929 90.9224 132.181C89.8235 133.433 88.7246 134.718 87.6923 136.037C86.66 137.356 85.6943 138.701 84.7419 140.033L84.0759 141.065L83.4099 142.111C83.1901 142.464 82.997 142.817 82.8038 143.177L82.2777 144.142C82.0611 144.695 81.9395 145.281 81.918 145.874C81.8647 146.637 81.8647 147.402 81.918 148.165C82.0343 149.812 82.2455 151.451 82.5507 153.073C82.8371 154.732 83.2167 156.403 83.5964 158.055C83.976 159.707 84.4155 161.385 84.8484 163.03L82.4109 163.943C80.9267 160.711 79.6888 157.371 78.7079 153.953C78.201 152.205 77.8139 150.425 77.5491 148.625C77.411 147.661 77.342 146.688 77.3426 145.714C77.3242 144.565 77.5184 143.423 77.9154 142.344C78.0619 141.978 78.1485 141.831 78.2484 141.612L78.5481 140.986C78.7479 140.566 78.9543 140.153 79.1741 139.753L79.8401 138.541L80.5061 137.362C81.4374 135.811 82.4511 134.31 83.5431 132.867C84.622 131.428 85.7409 130.017 86.9197 128.671C88.0985 127.326 89.2907 126.007 90.656 124.728L94.3256 128.538Z" fill="#B55B52"/>
<path d="M94.6053 120.606C91.0422 120.766 87.6522 126.687 87.6522 126.687L91.868 135.291C91.868 135.291 98.7478 130.989 98.8344 125.761C98.8876 122.364 98.1151 120.446 94.6053 120.606Z" fill="#B872A2"/>
<path opacity="0.5" d="M94.6053 120.606C91.0422 120.766 87.6522 126.687 87.6522 126.687L91.868 135.291C91.868 135.291 98.7478 130.989 98.8344 125.761C98.8876 122.364 98.1151 120.446 94.6053 120.606Z" fill="black"/>
<path d="M84.1758 162.031L88.5181 163.323L85.6277 166.247C85.6277 166.247 82.5041 165.281 82.0646 163.157L84.1758 162.031Z" fill="#B55B52"/>
<path d="M91.1422 166.66L90.4162 169.457L85.6277 166.247L88.5181 163.323L91.1422 166.66Z" fill="#B55B52"/>
<path d="M190.68 137.707L85.3622 140.226L86.3118 179.935L191.63 177.416L190.68 137.707Z" fill="#B872A2"/>
<path opacity="0.6" d="M190.68 137.707L85.3622 140.226L86.3118 179.935L191.63 177.416L190.68 137.707Z" fill="white"/>
<path d="M185.387 140.997L146.124 141.936L146.478 156.737L185.741 155.798L185.387 140.997Z" fill="#C4A0B8"/>
<path opacity="0.7" d="M185.387 140.997L146.124 141.936L146.478 156.737L185.741 155.798L185.387 140.997Z" fill="white"/>
<path d="M164.335 159.424L125.072 160.363L125.426 175.164L164.689 174.225L164.335 159.424Z" fill="#C4A0B8"/>
<path opacity="0.7" d="M164.335 159.424L125.072 160.363L125.426 175.164L164.689 174.225L164.335 159.424Z" fill="white"/>
<path d="M119.214 107.486C119.147 107.892 119.307 108.265 119.574 108.312C119.84 108.358 120.113 108.078 120.186 107.646C120.26 107.213 120.087 106.866 119.82 106.813C119.554 106.76 119.247 107.073 119.214 107.486Z" fill="#263238"/>
<path d="M119.667 106.84L120.693 106.746C120.693 106.746 120.066 107.412 119.667 106.84Z" fill="#263238"/>
<path d="M119.46 107.945C119.674 108.948 120.021 109.918 120.493 110.829C120.257 110.937 120 110.993 119.74 110.993C119.48 110.993 119.224 110.937 118.988 110.829L119.46 107.945Z" fill="#A02724"/>
<path d="M120.18 104.875C120.14 104.874 120.101 104.863 120.067 104.842C119.797 104.685 119.494 104.594 119.183 104.576C118.872 104.557 118.561 104.612 118.275 104.735C118.247 104.75 118.216 104.759 118.184 104.762C118.152 104.764 118.12 104.761 118.089 104.751C118.059 104.741 118.031 104.725 118.007 104.704C117.983 104.683 117.963 104.657 117.949 104.629C117.933 104.601 117.922 104.57 117.919 104.538C117.915 104.507 117.918 104.474 117.928 104.444C117.937 104.413 117.953 104.385 117.973 104.36C117.994 104.336 118.02 104.316 118.049 104.302C118.405 104.142 118.794 104.069 119.184 104.089C119.575 104.109 119.954 104.221 120.293 104.415C120.321 104.43 120.346 104.45 120.366 104.475C120.387 104.499 120.402 104.527 120.411 104.558C120.42 104.588 120.424 104.62 120.42 104.652C120.417 104.683 120.408 104.714 120.393 104.742C120.374 104.782 120.344 104.816 120.306 104.84C120.268 104.863 120.224 104.875 120.18 104.875Z" fill="#263238"/>
<path d="M106.167 110.842C106.267 113.953 105.947 119.56 103.503 121.145C103.503 121.145 103.823 124.349 109.424 125.428C115.578 126.62 112.867 122.964 112.867 122.964C109.637 121.512 110.136 119.054 111.109 116.836L106.167 110.842Z" fill="#B55B52"/>
<path d="M122.937 128.991C123.323 130.543 123.809 132.241 124.342 133.839C124.875 135.438 125.474 137.036 126.147 138.575C126.804 140.089 127.569 141.553 128.438 142.957C129.232 144.289 130.197 145.512 131.309 146.593C131.823 147.075 132.391 147.498 133 147.852C133.284 148.021 133.58 148.168 133.886 148.292L134.166 148.398C134.24 148.42 134.315 148.433 134.392 148.438C134.926 148.45 135.455 148.336 135.937 148.105C136.613 147.802 137.257 147.434 137.862 147.006C140.571 144.972 143.03 142.625 145.188 140.013L147.359 141.458C146.9 142.298 146.427 143.063 145.927 143.843C145.428 144.622 144.895 145.368 144.329 146.107C143.194 147.637 141.907 149.047 140.486 150.316C139.705 151.003 138.852 151.604 137.942 152.108C136.85 152.727 135.626 153.074 134.372 153.12C134.004 153.122 133.636 153.09 133.273 153.027C132.934 152.962 132.6 152.871 132.274 152.754C131.747 152.571 131.235 152.349 130.742 152.088C129.787 151.589 128.893 150.981 128.078 150.276C124.915 147.526 122.984 144.129 121.418 140.732C120.632 139.038 119.945 137.299 119.361 135.524C118.753 133.749 118.246 131.942 117.842 130.11L122.937 128.991Z" fill="#B55B52"/>
<path d="M144.895 140.273L146.407 137.502L150.603 138.615C150.603 138.615 148.085 142.444 145.941 142.451L144.895 140.273Z" fill="#B55B52"/>
<path d="M149.823 136.503L153.014 138.615H150.603L146.4 137.502L149.823 136.503Z" fill="#B55B52"/>
<path d="M92.7738 270.662L97.9153 271.035L99.4405 259.234L94.2989 258.854L92.7738 270.662Z" fill="#B55B52"/>
<path d="M52.321 245.274L55.8708 249.091L65.5078 242.191L61.9514 238.375L52.321 245.274Z" fill="#B55B52"/>
<path d="M57.4292 248.498L54.4588 243.436C54.4119 243.349 54.3345 243.281 54.2412 243.247C54.1479 243.213 54.0453 243.214 53.9527 243.25L49.7302 244.955C49.6244 245.003 49.5301 245.074 49.4537 245.162C49.3773 245.25 49.3205 245.353 49.2871 245.464C49.2537 245.576 49.2445 245.693 49.26 245.809C49.2756 245.924 49.3155 246.035 49.3773 246.134C50.4362 247.879 51.0356 248.671 52.341 250.896C53.1402 252.228 54.1791 254.345 55.2847 256.224C56.3902 258.102 58.2684 257.149 57.9487 256.263C56.6167 252.301 57.2827 251.149 57.5757 249.39C57.6286 249.085 57.577 248.77 57.4292 248.498Z" fill="#263238"/>
<path d="M98.2351 270.309H92.4608C92.3608 270.306 92.2631 270.34 92.186 270.404C92.1088 270.467 92.0574 270.557 92.0413 270.656L91.2421 275.231C91.2269 275.345 91.2362 275.461 91.2694 275.571C91.3026 275.681 91.359 275.782 91.4346 275.869C91.5103 275.955 91.6036 276.024 91.7082 276.072C91.8129 276.119 91.9264 276.144 92.0413 276.144C94.0393 276.11 95.0316 275.99 97.5757 275.99C99.1408 275.99 102.371 276.157 104.529 276.157C106.687 276.157 106.853 274.019 105.961 273.826C101.965 272.96 100.4 271.761 99.0676 270.622C98.8341 270.426 98.5402 270.315 98.2351 270.309Z" fill="#263238"/>
<path d="M99.4405 259.234L98.5946 265.801L93.5131 264.948L94.2989 258.861L99.4405 259.234Z" fill="#9E4541"/>
<path d="M61.9513 238.375L65.5078 242.191L61.5184 245.048L57.8354 241.318L61.9513 238.375Z" fill="#9E4541"/>
<path d="M93.1602 151.921L113.806 155.917C123.523 127.206 121.212 126.307 121.212 126.307C119.703 125.488 118.146 124.761 116.55 124.129L116.27 124.029C114.938 123.543 114.672 123.476 112.907 122.957C109.87 122.244 107.04 121.625 103.543 121.152L102.877 121.059C102.244 120.979 101.618 120.912 101.012 120.852C100.599 120.806 100.193 120.779 99.8002 120.752L98.4682 120.679C96.2171 120.573 94.6054 120.606 94.6054 120.606C95.7442 138.528 94.8851 143.65 93.1602 151.921Z" fill="#B872A2"/>
<path opacity="0.5" d="M93.1602 151.921L113.806 155.917C123.523 127.206 121.212 126.307 121.212 126.307C119.703 125.488 118.146 124.761 116.55 124.129L116.27 124.029C114.938 123.543 114.672 123.476 112.907 122.957C109.87 122.244 107.04 121.625 103.543 121.152L102.877 121.059C102.244 120.979 101.618 120.912 101.012 120.852C100.599 120.806 100.193 120.779 99.8002 120.752L98.4682 120.679C96.2171 120.573 94.6054 120.606 94.6054 120.606C95.7442 138.528 94.8851 143.65 93.1602 151.921Z" fill="black"/>
<path d="M117.023 135.032C116.431 138.032 116.64 141.135 117.629 144.029C119.341 138.421 120.293 134.585 120.839 131.961C119.261 131.755 117.576 132.268 117.023 135.032Z" fill="#B872A2"/>
<path opacity="0.6" d="M117.023 135.032C116.431 138.032 116.64 141.135 117.629 144.029C119.341 138.421 120.293 134.585 120.839 131.961C119.261 131.755 117.576 132.268 117.023 135.032Z" fill="black"/>
<path d="M121.019 126.207C124.462 128.451 126.653 133.453 127.233 136.31L119.241 142.817C119.241 142.817 114.892 133.107 116.317 130.629C117.815 128.045 119.72 125.361 121.019 126.207Z" fill="#B872A2"/>
<path opacity="0.5" d="M121.019 126.207C124.462 128.451 126.653 133.453 127.233 136.31L119.241 142.817C119.241 142.817 114.892 133.107 116.317 130.629C117.815 128.045 119.72 125.361 121.019 126.207Z" fill="black"/>
<path d="M105.661 103.71C105.148 108.771 104.815 110.902 106.933 113.959C110.117 118.561 116.47 118.275 118.495 113.513C120.32 109.231 120.859 101.672 116.264 98.7278C115.286 98.0631 114.152 97.6645 112.973 97.5712C111.795 97.478 110.612 97.6934 109.542 98.1961C108.472 98.6989 107.551 99.4717 106.871 100.438C106.19 101.405 105.773 102.533 105.661 103.71Z" fill="#B55B52"/>
<path d="M105.734 93.3799C102.624 95.6842 104.615 96.237 103.29 98.5613C101.871 101.052 100.38 98.215 97.5557 100.952C95.7242 102.73 98.8877 104.615 96.5767 107.745C94.8052 110.176 92.8871 108.072 93.633 113.073C94.1458 116.477 92.0612 116.05 90.656 117.975C88.658 120.732 90.4495 122.71 95.591 123.749C100.733 124.788 97.0696 129.957 101.905 130.11C107.179 130.283 105.954 123.41 108.525 125.081C111.096 126.753 115.778 125.228 115.491 121.119C115.238 117.349 111.049 117.482 114.439 114.905C117.103 112.907 117.909 112.907 116.031 108.618C114.439 104.968 120.286 105.528 120.18 102.364C119.98 96.6566 116.031 98.3682 114.785 95.4445C113.979 93.5264 109.717 90.4228 105.734 93.3799Z" fill="#263238"/>
<path d="M115.498 106.347C115.524 107.293 115.843 108.207 116.41 108.964C117.196 110.037 118.122 109.757 118.348 108.771C118.555 107.885 118.395 106.26 117.389 105.514C116.384 104.768 115.504 105.288 115.498 106.347Z" fill="#B55B52"/>
<path d="M108.338 154.865C108.338 154.865 98.295 188.505 93.3865 207.879C88.2051 228.325 63.4965 244.981 63.4965 244.981L58.2284 239.76C58.2284 239.76 74.7452 225.821 79.7602 206.74C89.9433 168.018 85.0416 159.813 93.1601 151.941L108.338 154.865Z" fill="#B872A2"/>
<path opacity="0.8" d="M108.338 154.865C108.338 154.865 98.295 188.505 93.3865 207.879C88.2051 228.325 63.4965 244.981 63.4965 244.981L58.2284 239.76C58.2284 239.76 74.7452 225.821 79.7602 206.74C89.9433 168.018 85.0416 159.813 93.1601 151.941L108.338 154.865Z" fill="white"/>
<path d="M63.956 245.747L57.3693 239.201L59.1608 237.216L67.1728 244.036L63.956 245.747Z" fill="#B872A2"/>
<path d="M103.623 162.031C97.0295 167.113 96.5899 186.48 96.7431 195.231C100.073 182.997 104.069 169.39 106.373 161.518C105.741 160.986 104.835 161.092 103.623 162.031Z" fill="#B872A2"/>
<path opacity="0.6" d="M103.623 162.031C97.0295 167.113 96.5899 186.48 96.7431 195.231C100.073 182.997 104.069 169.39 106.373 161.518C105.741 160.986 104.835 161.092 103.623 162.031Z" fill="white"/>
<path d="M58.4949 251.242C58.4331 251.252 58.3701 251.252 58.3084 251.242C57.6823 251.049 57.2361 249.91 57.023 249.244C57.0165 249.221 57.0168 249.197 57.0239 249.175C57.031 249.152 57.0446 249.132 57.063 249.117C57.0823 249.103 57.1056 249.096 57.1296 249.096C57.1535 249.096 57.1768 249.103 57.1962 249.117C57.3893 249.211 59.0543 250.083 59.1209 250.736C59.127 250.808 59.1143 250.882 59.0839 250.948C59.0536 251.015 59.0067 251.072 58.9477 251.115C58.8154 251.207 58.6558 251.252 58.4949 251.242ZM57.356 249.424C57.6624 250.303 58.022 250.876 58.375 250.982C58.4498 251.001 58.5282 251.001 58.6028 250.981C58.6774 250.961 58.7457 250.923 58.8012 250.869C58.8277 250.852 58.8488 250.828 58.8618 250.8C58.8748 250.772 58.8792 250.74 58.8745 250.709C58.8412 250.363 58.0087 249.79 57.356 249.424Z" fill="#B872A2"/>
<path d="M113.473 155.917C113.473 155.917 114.758 196.623 111.881 211.955C108.891 227.899 99.7801 264.176 99.7801 264.176L92.3676 263.217C92.3676 263.217 97.0296 226.587 99.0276 210.729C101.192 193.453 98.3616 152.994 98.3616 152.994L113.473 155.917Z" fill="#B872A2"/>
<path opacity="0.8" d="M113.473 155.917C113.473 155.917 114.758 196.623 111.881 211.955C108.891 227.899 99.7801 264.176 99.7801 264.176L92.3676 263.217C92.3676 263.217 97.0296 226.587 99.0276 210.729C101.192 193.453 98.3616 152.994 98.3616 152.994L113.473 155.917Z" fill="white"/>
<path d="M101.359 264.595L90.7892 263.237L90.9157 260.726L102.418 261.225L101.359 264.595Z" fill="#B872A2"/>
<path d="M58.6613 249.637C58.1131 249.633 57.5723 249.51 57.0762 249.277C57.0591 249.265 57.0449 249.249 57.0346 249.23C57.0242 249.212 57.018 249.192 57.0162 249.171C57.0177 249.149 57.0246 249.128 57.0362 249.109C57.0478 249.09 57.0638 249.075 57.0828 249.064C57.1361 249.031 58.4148 248.305 59.0808 248.538C59.1725 248.567 59.2568 248.615 59.3281 248.679C59.3994 248.744 59.4559 248.823 59.4938 248.911C59.543 248.996 59.5613 249.096 59.5456 249.193C59.5298 249.29 59.4809 249.378 59.4072 249.444C59.1872 249.59 58.9245 249.658 58.6613 249.637ZM57.4092 249.164C57.9886 249.397 58.9943 249.497 59.2607 249.257C59.3073 249.224 59.3472 249.157 59.2607 249.011C59.2391 248.953 59.2044 248.902 59.1593 248.86C59.1142 248.818 59.0599 248.788 59.0009 248.771C58.4426 248.736 57.8871 248.873 57.4092 249.164Z" fill="#B872A2"/>
<path d="M100.146 271.209C99.6045 271.197 99.0649 271.135 98.5347 271.022C98.51 271.017 98.4873 271.005 98.4695 270.987C98.4517 270.97 98.4396 270.947 98.4348 270.922C98.4308 270.897 98.4352 270.871 98.4471 270.848C98.4591 270.825 98.4782 270.807 98.5014 270.796C98.7345 270.676 100.819 269.623 101.438 269.976C101.496 270.009 101.544 270.055 101.579 270.111C101.614 270.167 101.634 270.23 101.638 270.296C101.651 270.407 101.636 270.52 101.594 270.623C101.552 270.727 101.485 270.818 101.398 270.889C101.03 271.136 100.588 271.249 100.146 271.209ZM98.9409 270.849C100.073 271.035 100.939 270.989 101.239 270.709C101.295 270.661 101.338 270.6 101.365 270.532C101.391 270.463 101.401 270.389 101.392 270.316C101.392 270.289 101.386 270.263 101.373 270.24C101.36 270.216 101.341 270.197 101.319 270.183C100.979 269.996 99.8001 270.443 98.9409 270.849Z" fill="#B872A2"/>
<path d="M98.568 271.022C98.5462 271.028 98.5232 271.028 98.5014 271.022C98.4835 271.009 98.4691 270.992 98.4598 270.972C98.4504 270.953 98.4464 270.931 98.4481 270.909C98.4481 270.816 98.7212 268.584 99.9466 268.718C100.28 268.751 100.38 268.924 100.4 269.057C100.493 269.637 99.2473 270.756 98.6213 271.055L98.568 271.022ZM99.8534 268.937C99.1075 268.937 98.8144 270.163 98.7279 270.682C99.3939 270.303 100.213 269.424 100.16 269.077C100.16 269.077 100.16 268.964 99.92 268.944L99.8534 268.937Z" fill="#B872A2"/>
<path d="M93.0536 150.663L91.8215 152.314C91.7216 152.447 91.8681 152.621 92.1078 152.667L113.733 156.856C113.919 156.896 114.093 156.856 114.119 156.716L114.612 154.918C114.612 154.792 114.499 154.659 114.299 154.619L93.4132 150.569C93.3504 150.551 93.2839 150.551 93.2207 150.567C93.1575 150.583 93.0998 150.616 93.0536 150.663Z" fill="#B872A2"/>
<path d="M95.4711 153.526L94.9116 153.42C94.8051 153.42 94.7252 153.32 94.7451 153.253L95.4111 150.922C95.4111 150.856 95.5377 150.816 95.6442 150.836L96.2037 150.942C96.3169 150.942 96.3902 151.042 96.3702 151.109L95.7042 153.44C95.6909 153.506 95.5843 153.546 95.4711 153.526Z" fill="#B872A2"/>
<path opacity="0.8" d="M95.4711 153.526L94.9116 153.42C94.8051 153.42 94.7252 153.32 94.7451 153.253L95.4111 150.922C95.4111 150.856 95.5377 150.816 95.6442 150.836L96.2037 150.942C96.3169 150.942 96.3902 151.042 96.3702 151.109L95.7042 153.44C95.6909 153.506 95.5843 153.546 95.4711 153.526Z" fill="white"/>
<path d="M109.597 156.297L109.038 156.184C108.924 156.184 108.851 156.09 108.871 156.024L109.537 153.686C109.537 153.62 109.664 153.58 109.777 153.606L110.336 153.713C110.449 153.713 110.523 153.806 110.503 153.879L109.837 156.21C109.817 156.277 109.71 156.317 109.597 156.297Z" fill="#B872A2"/>
<path opacity="0.8" d="M109.597 156.297L109.038 156.184C108.924 156.184 108.851 156.09 108.871 156.024L109.537 153.686C109.537 153.62 109.664 153.58 109.777 153.606L110.336 153.713C110.449 153.713 110.523 153.806 110.503 153.879L109.837 156.21C109.817 156.277 109.71 156.317 109.597 156.297Z" fill="white"/>
</svg>
