<svg width="25" height="25" viewBox="0 0 25 25" fill="none" xmlns="http://www.w3.org/2000/svg">
<path d="M13.7857 0.00153799C14.6979 -0.00196228 15.6101 0.00720536 16.522 0.0290381L16.7645 0.037788C17.0445 0.0477881 17.3207 0.060288 17.6545 0.075288C18.9845 0.137788 19.892 0.347788 20.6882 0.656538C21.5132 0.974038 22.2082 1.40404 22.9032 2.09904C23.5387 2.72355 24.0305 3.47897 24.3445 4.31279C24.6532 5.10904 24.8632 6.01779 24.9257 7.34779C24.9407 7.68029 24.9532 7.95779 24.9632 8.23779L24.9707 8.48029C24.9929 9.39178 25.0025 10.3035 24.9995 11.2153L25.0007 12.1478V13.7853C25.0038 14.6975 24.9942 15.6096 24.972 16.5215L24.9645 16.764C24.9545 17.044 24.942 17.3203 24.927 17.654C24.8645 18.984 24.652 19.8915 24.3445 20.6878C24.0315 21.5225 23.5396 22.2785 22.9032 22.9028C22.2782 23.5382 21.5224 24.03 20.6882 24.344C19.892 24.6528 18.9845 24.8628 17.6545 24.9253C17.3207 24.9403 17.0445 24.9528 16.7645 24.9628L16.522 24.9703C15.6101 24.9925 14.6979 25.0021 13.7857 24.999L12.8532 25.0003H11.217C10.3048 25.0034 9.39263 24.9938 8.48072 24.9715L8.23822 24.964C7.94148 24.9533 7.64481 24.9408 7.34822 24.9265C6.01822 24.864 5.11072 24.6515 4.31322 24.344C3.47908 24.0307 2.72352 23.5388 2.09947 22.9028C1.46328 22.2781 0.971002 21.5222 0.656971 20.6878C0.348221 19.8915 0.138221 18.984 0.0757212 17.654C0.0617998 17.3574 0.0492997 17.0608 0.0382212 16.764L0.0319714 16.5215C0.00892585 15.6096 -0.00149193 14.6975 0.000721251 13.7853V11.2153C-0.00276746 10.3035 0.00640019 9.39178 0.0282213 8.48029L0.0369713 8.23779C0.0469713 7.95779 0.0594713 7.68029 0.0744713 7.34779C0.136971 6.01654 0.346971 5.11029 0.655721 4.31279C0.969937 3.47856 1.46318 2.72334 2.10072 2.10029C2.72434 1.46373 3.47942 0.971004 4.31322 0.656538C5.11072 0.347788 6.01697 0.137788 7.34822 0.075288L8.23822 0.037788L8.48072 0.0315382C9.3922 0.00850422 10.304 -0.00191356 11.2157 0.000288085L13.7857 0.00153799ZM12.5007 6.25154C11.6726 6.23983 10.8504 6.39282 10.0819 6.70162C9.31347 7.01043 8.61403 7.46889 8.02428 8.05036C7.43453 8.63183 6.96622 9.32471 6.64658 10.0887C6.32694 10.8528 6.16234 11.6727 6.16234 12.5009C6.16234 13.3291 6.32694 14.1491 6.64658 14.9131C6.96622 15.6771 7.43453 16.37 8.02428 16.9515C8.61403 17.5329 9.31347 17.9914 10.0819 18.3002C10.8504 18.609 11.6726 18.762 12.5007 18.7503C14.1583 18.7503 15.748 18.0918 16.9201 16.9197C18.0922 15.7476 18.7507 14.1579 18.7507 12.5003C18.7507 10.8427 18.0922 9.25297 16.9201 8.08087C15.748 6.90877 14.1583 6.25154 12.5007 6.25154ZM12.5007 8.75154C12.9989 8.74236 13.4938 8.83253 13.9567 9.0168C14.4196 9.20106 14.8411 9.47571 15.1967 9.82472C15.5522 10.1737 15.8347 10.5901 16.0275 11.0495C16.2204 11.5089 16.3197 12.0021 16.3198 12.5003C16.3199 12.9985 16.2207 13.4917 16.028 13.9512C15.8353 14.4106 15.553 14.8271 15.1976 15.1762C14.8422 15.5253 14.4207 15.8001 13.9579 15.9845C13.495 16.169 13.0001 16.2593 12.502 16.2503C11.5074 16.2503 10.5536 15.8552 9.85032 15.1519C9.14706 14.4487 8.75197 13.4949 8.75197 12.5003C8.75197 11.5057 9.14706 10.5519 9.85032 9.84864C10.5536 9.14538 11.5074 8.75029 12.502 8.75029L12.5007 8.75154ZM19.0632 4.37654C18.66 4.39268 18.2786 4.56423 17.999 4.85525C17.7194 5.14628 17.5632 5.53421 17.5632 5.93779C17.5632 6.34137 17.7194 6.7293 17.999 7.02032C18.2786 7.31135 18.66 7.4829 19.0632 7.49904C19.4776 7.49904 19.8751 7.33442 20.1681 7.04139C20.4611 6.74837 20.6257 6.35094 20.6257 5.93654C20.6257 5.52214 20.4611 5.12471 20.1681 4.83168C19.8751 4.53866 19.4776 4.37404 19.0632 4.37404V4.37654Z" fill="white"/>
</svg>
