<svg width="41" height="40" viewBox="0 0 41 40" fill="none" xmlns="http://www.w3.org/2000/svg">
<path d="M37.7057 0.000279658H3.6212C3.23806 -0.00500951 2.85762 0.0647738 2.50161 0.205644C2.14561 0.346515 1.821 0.555713 1.54634 0.821292C1.27168 1.08687 1.05235 1.40363 0.90086 1.75347C0.749372 2.10332 0.6687 2.4794 0.663452 2.86024V37.1398C0.6687 37.5206 0.749372 37.8967 0.90086 38.2465C1.05235 38.5964 1.27168 38.9131 1.54634 39.1787C1.821 39.4443 2.14561 39.6535 2.50161 39.7944C2.85762 39.9352 3.23806 40.005 3.6212 39.9997H37.7057C38.0888 40.005 38.4693 39.9352 38.8253 39.7944C39.1813 39.6535 39.5059 39.4443 39.7806 39.1787C40.0552 38.9131 40.2746 38.5964 40.426 38.2465C40.5775 37.8967 40.6582 37.5206 40.6635 37.1398V2.86024C40.6582 2.4794 40.5775 2.10332 40.426 1.75347C40.2746 1.40363 40.0552 1.08687 39.7806 0.821292C39.5059 0.555713 39.1813 0.346515 38.8253 0.205644C38.4693 0.0647738 38.0888 -0.00500951 37.7057 0.000279658ZM12.7962 33.4798H6.76003V15.4801H12.7962V33.4798ZM9.77814 12.9601C8.94567 12.9601 8.14729 12.6314 7.55865 12.0463C6.97 11.4612 6.63931 10.6676 6.63931 9.84014C6.63931 9.01268 6.97 8.2191 7.55865 7.634C8.14729 7.04889 8.94567 6.72019 9.77814 6.72019C10.2202 6.67036 10.6678 6.71389 11.0918 6.84795C11.5157 6.98201 11.9064 7.20356 12.2382 7.4981C12.57 7.79264 12.8355 8.15352 13.0173 8.55712C13.1991 8.96072 13.2931 9.39794 13.2931 9.84014C13.2931 10.2823 13.1991 10.7196 13.0173 11.1232C12.8355 11.5268 12.57 11.8876 12.2382 12.1822C11.9064 12.4767 11.5157 12.6983 11.0918 12.8323C10.6678 12.9664 10.2202 13.0099 9.77814 12.9601ZM34.5669 33.4798H28.5307V23.8199C28.5307 21.4 27.6655 19.82 25.4723 19.82C24.7936 19.8249 24.1326 20.0366 23.5786 20.4263C23.0246 20.8161 22.6041 21.3653 22.3737 22C22.2163 22.47 22.148 22.9651 22.1725 23.46V33.4598H16.1363V15.4601H22.1725V18C22.7209 17.0543 23.5184 16.2751 24.4792 15.7465C25.4401 15.2178 26.5278 14.9598 27.6252 15.0001C31.6494 15.0001 34.5669 17.58 34.5669 23.12V33.4798Z" fill="#F6F6F6"/>
</svg>
