<svg width="25" height="25" viewBox="0 0 25 25" fill="none" xmlns="http://www.w3.org/2000/svg">
<path d="M23.0125 0.000174788H1.8375C1.59947 -0.00313099 1.36313 0.0404842 1.14196 0.12853C0.920788 0.216575 0.719129 0.347326 0.548497 0.513315C0.377865 0.679304 0.241602 0.87728 0.14749 1.09594C0.053378 1.31459 0.00326049 1.54965 0 1.78767V23.2127C0.00326049 23.4507 0.053378 23.6858 0.14749 23.9044C0.241602 24.1231 0.377865 24.321 0.548497 24.487C0.719129 24.653 0.920788 24.7838 1.14196 24.8718C1.36313 24.9599 1.59947 25.0035 1.8375 25.0002H23.0125C23.2505 25.0035 23.4869 24.9599 23.708 24.8718C23.9292 24.7838 24.1309 24.653 24.3015 24.487C24.4721 24.321 24.6084 24.1231 24.7025 23.9044C24.7966 23.6858 24.8467 23.4507 24.85 23.2127V1.78767C24.8467 1.54965 24.7966 1.31459 24.7025 1.09594C24.6084 0.87728 24.4721 0.679304 24.3015 0.513315C24.1309 0.347326 23.9292 0.216575 23.708 0.12853C23.4869 0.0404842 23.2505 -0.00313099 23.0125 0.000174788ZM7.5375 20.9252H3.7875V9.67517H7.5375V20.9252ZM5.6625 8.10017C5.14533 8.10017 4.64934 7.89473 4.28364 7.52903C3.91795 7.16334 3.7125 6.66735 3.7125 6.15017C3.7125 5.633 3.91795 5.13701 4.28364 4.77132C4.64934 4.40562 5.14533 4.20017 5.6625 4.20017C5.93712 4.16903 6.21522 4.19624 6.47859 4.28003C6.74197 4.36382 6.98467 4.50229 7.19082 4.68638C7.39697 4.87047 7.56191 5.09602 7.67484 5.34828C7.78777 5.60053 7.84615 5.8738 7.84615 6.15017C7.84615 6.42655 7.78777 6.69982 7.67484 6.95207C7.56191 7.20433 7.39697 7.42988 7.19082 7.61397C6.98467 7.79806 6.74197 7.93653 6.47859 8.02032C6.21522 8.10411 5.93712 8.13132 5.6625 8.10017ZM21.0625 20.9252H17.3125V14.8877C17.3125 13.3752 16.775 12.3877 15.4125 12.3877C14.9908 12.3908 14.5802 12.523 14.236 12.7666C13.8919 13.0103 13.6306 13.3535 13.4875 13.7502C13.3897 14.044 13.3473 14.3534 13.3625 14.6627V20.9127H9.6125V9.66267H13.3625V11.2502C13.7032 10.6591 14.1986 10.1721 14.7956 9.84168C15.3925 9.51128 16.0682 9.34999 16.75 9.37517C19.25 9.37517 21.0625 10.9877 21.0625 14.4502V20.9252Z" fill="white"/>
</svg>
