<svg width="120" height="120" viewBox="0 0 120 120" fill="none" xmlns="http://www.w3.org/2000/svg">
<g clip-path="url(#clip0_42_76)">
<mask id="mask0_42_76" style="mask-type:luminance" maskUnits="userSpaceOnUse" x="0" y="0" width="120" height="120">
<path d="M0 0H120V120H0V0Z" fill="white"/>
</mask>
<g mask="url(#mask0_42_76)">
<path d="M66.5195 43.68H69.8005C73.2991 43.68 76.0254 45.1059 78.5766 47.6832L96.8813 65.9931C99.9001 69.0119 99.8801 73.9365 96.8611 76.9554C93.8421 79.9743 88.9272 79.9992 85.9082 76.9803L66.5214 57.5969L61.2908 52.3276L56.4965 43.68H66.5195Z" fill="white"/>
<path d="M53.4382 85.3099L39.5728 71.446L53.4382 57.5819L58.6687 52.3201L63.4631 43.6801H53.4401H50.159C46.6604 43.6801 43.9342 45.0976 41.383 47.6749L23.4456 65.6134C23.3276 65.7179 23.2114 65.8296 23.0984 65.9425C21.9564 67.0846 21.2443 68.5008 20.9628 69.9809C20.9605 69.9926 20.959 70.0056 20.9567 70.0174C20.9366 70.1258 20.9182 70.235 20.9027 70.3441C20.8981 70.3756 20.8951 70.4075 20.891 70.4392C20.8794 70.5292 20.8679 70.6193 20.8594 70.7096C20.855 70.7554 20.8528 70.8014 20.8493 70.8472C20.8434 70.9238 20.837 71.0004 20.8334 71.0772C20.8307 71.134 20.8303 71.1908 20.8289 71.2476C20.8272 71.3138 20.8247 71.38 20.8247 71.4461C20.8247 71.5122 20.8272 71.5783 20.8289 71.6444C20.8303 71.7013 20.8307 71.7582 20.8334 71.8151C20.8369 71.8915 20.8434 71.9678 20.8492 72.0442C20.8528 72.0904 20.855 72.1364 20.8595 72.1826C20.8679 72.2722 20.8793 72.3614 20.8908 72.4508C20.895 72.4831 20.8981 72.5156 20.9027 72.5479C20.9179 72.6556 20.9363 72.7628 20.9561 72.8699C20.9586 72.8831 20.9604 72.8964 20.9629 72.9097C21.2446 74.3894 21.9565 75.8033 23.0984 76.9452C23.2106 77.0573 23.3261 77.164 23.4432 77.2678L41.383 95.231C43.9342 97.8084 46.6604 99.2401 50.159 99.2401H53.4401H63.4631L58.6687 90.5858L53.4382 85.3099Z" fill="#B872A2"/>
<path d="M96.876 65.9736C93.857 62.9546 88.9421 62.9347 85.9231 65.9537L66.5363 85.3396L61.866 90.0098L68.9359 57.0227L76.0057 24.0355C76.3474 22.4533 75.0209 21.0001 73.2542 21.0001H62.8212C61.4753 21.0001 60.3191 21.8532 60.0666 23.0602L44.9078 96.1912C44.5777 97.7692 45.9028 99.2401 47.6626 99.2401H57.5873H57.9712H66.5344H69.8154C73.314 99.2401 76.0404 97.8236 78.5915 95.2463L96.8962 76.9412C99.9151 73.9223 99.895 68.9924 96.876 65.9736Z" fill="white"/>
<path d="M55.757 43.7189L60.0666 23.0601C60.3191 21.8531 61.4753 21.0001 62.8213 21.0001H73.2542C74.6808 21.0001 75.348 21.8464 75.3605 21.8443L55.757 43.7189Z" fill="#B872A2"/>
</g>
</g>
<defs>
<clipPath id="clip0_42_76">
<rect width="120" height="120" fill="white"/>
</clipPath>
</defs>
</svg>
