<svg width="156" height="166" viewBox="0 0 156 166" fill="none" xmlns="http://www.w3.org/2000/svg">
<path d="M146.986 0.342995H8.84322C4.07352 0.342995 0.206909 4.21488 0.206909 8.99109V156.726C0.206909 161.502 4.07352 165.374 8.84322 165.374H146.986C151.756 165.374 155.622 161.502 155.622 156.726V8.99109C155.622 4.21488 151.756 0.342995 146.986 0.342995Z" fill="#EDDBE7"/>
<path d="M87.6895 50.4318H92.6017C97.8413 50.4318 101.916 52.59 105.739 56.4489L133.133 83.8955C137.649 88.4179 137.619 95.8076 133.102 100.33C128.586 104.852 121.229 104.89 116.713 100.368L87.6971 71.3199L79.8681 63.404L72.694 50.4242H87.6971L87.6895 50.4318Z" fill="#730067"/>
<path d="M68.1169 112.86L47.3639 92.0861L68.1169 71.3123L75.946 63.404L83.1201 50.4394H63.2124C57.9727 50.4394 53.8982 52.5824 50.0751 56.4489L23.2294 83.3388C23.0543 83.499 22.8791 83.6667 22.7115 83.8345C21.0056 85.5428 19.9394 87.6705 19.5129 89.8897C19.5129 89.905 19.5129 89.9278 19.5053 89.9431C19.4748 90.1032 19.4444 90.271 19.4215 90.4312C19.4215 90.4769 19.4139 90.5303 19.4063 90.5761C19.3911 90.7133 19.3682 90.843 19.3606 90.9802C19.3606 91.0489 19.353 91.1175 19.3454 91.1862C19.3378 91.3005 19.3301 91.4149 19.3225 91.5293C19.3225 91.6132 19.3225 91.6971 19.3225 91.781C19.3225 91.8801 19.3225 91.9793 19.3225 92.0784C19.3225 92.1776 19.3225 92.2767 19.3225 92.3758C19.3225 92.4597 19.3225 92.5436 19.3225 92.6351C19.3225 92.7495 19.3378 92.8639 19.3454 92.9783C19.3454 93.047 19.353 93.1156 19.3606 93.1842C19.3758 93.3215 19.3911 93.4511 19.4063 93.5884C19.4063 93.6342 19.4139 93.6875 19.4215 93.7333C19.4444 93.8935 19.4748 94.0536 19.4977 94.2138C19.4977 94.2366 19.4977 94.2519 19.5053 94.2748C19.9242 96.494 20.9904 98.6141 22.7039 100.322C22.8715 100.49 23.0466 100.65 23.2218 100.803L50.0675 127.006C53.883 130.865 57.9651 132.299 63.2047 132.299H83.1124L75.9384 120.044L68.1093 112.852L68.1169 112.86Z" fill="#97C67D"/>
<path d="M133.125 83.8803C128.609 79.3579 121.252 79.3274 116.736 83.8498L87.72 112.906L80.7287 119.906L101.893 21.0328C102.403 18.6611 100.415 16.4876 97.7728 16.4876H82.1604C80.1422 16.4876 78.4134 17.7612 78.0403 19.5762L55.3528 128.455C54.8578 130.819 56.8455 132.307 59.473 132.307H92.6245C97.8642 132.307 101.939 130.903 105.762 127.037L133.156 99.9639C137.672 95.4416 137.642 88.4102 133.125 83.8879V83.8803Z" fill="#550044"/>
<path d="M71.5822 50.5309L78.0327 19.5762C78.4135 17.7688 80.1423 16.4876 82.1529 16.4876H97.7653C99.8977 16.4876 100.895 17.7536 100.918 17.7536L71.5822 50.5309Z" fill="#730067"/>
</svg>
