<svg width="118" height="117" viewBox="0 0 118 117" fill="none" xmlns="http://www.w3.org/2000/svg">
<path d="M68.6895 34.4318H73.6017C78.8413 34.4318 82.9158 36.59 86.7389 40.4489L114.133 67.8955C118.649 72.4179 118.619 79.8076 114.102 84.33C109.586 88.8523 102.229 88.8904 97.7133 84.3681L68.6971 55.3199L60.8681 47.404L53.694 34.4242H68.6971L68.6895 34.4318Z" fill="#730067"/>
<path d="M49.1169 96.8598L28.3639 76.0861L49.1169 55.3123L56.946 47.404L64.1201 34.4394H44.2124C38.9727 34.4394 34.8982 36.5824 31.0751 40.4489L4.22942 67.3388C4.05425 67.499 3.8791 67.6667 3.71155 67.8345C2.00561 69.5428 0.939389 71.6705 0.512905 73.8897C0.512905 73.905 0.512909 73.9278 0.505293 73.9431C0.47483 74.1032 0.444366 74.271 0.421519 74.4312C0.421519 74.4769 0.4139 74.5303 0.406284 74.5761C0.391052 74.7133 0.368207 74.843 0.360591 74.9802C0.360591 75.0489 0.352984 75.1175 0.345368 75.1862C0.337752 75.3005 0.330126 75.4149 0.32251 75.5293C0.32251 75.6132 0.32251 75.6971 0.32251 75.781C0.32251 75.8801 0.32251 75.9793 0.32251 76.0784C0.32251 76.1776 0.32251 76.2767 0.32251 76.3758C0.32251 76.4597 0.32251 76.5436 0.32251 76.6351C0.32251 76.7495 0.337752 76.8639 0.345368 76.9783C0.345368 77.047 0.352975 77.1156 0.360591 77.1842C0.375823 77.3215 0.391052 77.4511 0.406284 77.5884C0.406284 77.6342 0.413903 77.6875 0.421519 77.7333C0.444366 77.8935 0.474834 78.0536 0.497681 78.2138C0.497681 78.2366 0.497677 78.2519 0.505293 78.2748C0.924162 80.494 1.99037 82.6141 3.70393 84.3223C3.87147 84.4901 4.04664 84.6503 4.22181 84.8028L31.0675 111.006C34.883 114.865 38.9651 116.299 44.2047 116.299H64.1124L56.9384 104.044L49.1093 96.8522L49.1169 96.8598Z" fill="#97C67D"/>
<path d="M114.125 67.8803C109.609 63.3579 102.252 63.3274 97.7361 67.8498L68.72 96.9055L61.7287 103.906L82.893 5.03285C83.4032 2.6611 81.4155 0.48764 78.7728 0.48764H63.1604C61.1422 0.48764 59.4134 1.76121 59.0403 3.57624L36.3528 112.455C35.8578 114.819 37.8455 116.307 40.473 116.307H73.6245C78.8642 116.307 82.9386 114.903 86.7618 111.037L114.156 83.9639C118.672 79.4416 118.642 72.4102 114.125 67.8879V67.8803Z" fill="#550044"/>
<path d="M52.5822 34.5309L59.0327 3.57624C59.4135 1.76884 61.1423 0.48764 63.1529 0.48764H78.7653C80.8977 0.48764 81.8954 1.75358 81.9182 1.75358L52.5822 34.5309Z" fill="#730067"/>
</svg>
