<svg width="27" height="27" viewBox="0 0 27 27" fill="none" xmlns="http://www.w3.org/2000/svg">
<g id="octicon:goal-16">
<path id="Vector" d="M23.0124 3.98752H23.0107L25.839 4.55283C25.9909 4.58321 26.1157 4.69458 26.1596 4.84477C26.1818 4.91773 26.1838 4.99532 26.1653 5.06931C26.1469 5.1433 26.1088 5.21091 26.055 5.26496L23.7381 7.58358C23.4609 7.86028 23.0852 8.01565 22.6935 8.01558H20.7731L15.9469 12.8435C16.039 13.1912 16.0559 13.5545 15.9965 13.9092C15.9372 14.2639 15.803 14.6019 15.6027 14.9007C15.4025 15.1994 15.141 15.4521 14.8354 15.6419C14.5299 15.8316 14.1875 15.9541 13.8309 16.0011C13.4743 16.0481 13.1119 16.0186 12.7676 15.9145C12.4233 15.8105 12.1052 15.6343 11.8344 15.3976C11.5636 15.1609 11.3463 14.8693 11.197 14.5421C11.0478 14.2149 10.9699 13.8596 10.9688 13.5C10.969 13.1116 11.0585 12.7286 11.2304 12.3804C11.4023 12.0322 11.652 11.7282 11.9601 11.4919C12.2682 11.2555 12.6265 11.0932 13.0073 11.0174C13.3882 10.9416 13.7813 10.9544 14.1564 11.0548L18.9844 6.22514V4.30646C18.9844 3.91496 19.1396 3.53864 19.4164 3.26189L21.735 0.943269C21.789 0.889487 21.8567 0.851357 21.9306 0.832934C22.0046 0.814512 22.0822 0.816485 22.1552 0.838644C22.3054 0.882519 22.4167 1.00739 22.4471 1.15927L23.0124 3.98752Z" fill="#630043"/>
<path id="Vector_2" d="M3.37492 13.5C3.37666 14.9478 3.68887 16.3784 4.29051 17.6953C4.89214 19.0121 5.7692 20.1847 6.86252 21.1338C7.95585 22.0829 9.24 22.7865 10.6284 23.1971C12.0167 23.6077 13.477 23.7158 14.9107 23.5141C16.3444 23.3123 17.7181 22.8055 18.9393 22.0277C20.1604 21.2499 21.2006 20.2193 21.9895 19.0053C22.7785 17.7913 23.2979 16.4223 23.5128 14.9905C23.7277 13.5587 23.633 12.0975 23.2351 10.7055C23.1793 10.5428 23.1571 10.3705 23.1699 10.199C23.1828 10.0276 23.2304 9.8605 23.3099 9.70801C23.3894 9.55552 23.4991 9.4208 23.6323 9.31206C23.7655 9.20331 23.9194 9.12282 24.0848 9.07547C24.2501 9.02812 24.4233 9.01491 24.5939 9.03665C24.7645 9.05838 24.9288 9.11461 25.077 9.2019C25.2252 9.28919 25.354 9.40572 25.4557 9.54439C25.5574 9.68306 25.6298 9.84098 25.6685 10.0085C26.4389 12.7044 26.2925 15.5797 25.2524 18.1833C24.2123 20.787 22.3373 22.9718 19.9216 24.3948C17.5058 25.8179 14.686 26.3987 11.9045 26.0462C9.12298 25.6937 6.5372 24.4278 4.5528 22.4471C2.57056 20.4632 1.30331 17.8772 0.949991 15.095C0.596677 12.3129 1.17731 9.49218 2.60074 7.07578C4.02416 4.65938 6.20976 2.78411 8.8144 1.7444C11.419 0.704699 14.2952 0.55943 16.9914 1.33141C17.3124 1.42525 17.5832 1.64236 17.7447 1.93528C17.9061 2.2282 17.9451 2.57313 17.853 2.89467C17.7609 3.21621 17.5452 3.48822 17.2532 3.65126C16.9612 3.8143 16.6165 3.85512 16.2944 3.76478C14.7868 3.33222 13.1993 3.25577 11.657 3.54147C10.1148 3.82716 8.66001 4.46719 7.40736 5.4111C6.1547 6.35501 5.13843 7.57699 4.43865 8.98071C3.73888 10.3844 3.37473 11.9315 3.37492 13.5Z" fill="#B872A2"/>
<path id="Vector_3" d="M8.43757 13.5001C8.43767 14.4224 8.6896 15.3273 9.16618 16.117C9.64275 16.9067 10.3259 17.5513 11.1419 17.9813C11.9579 18.4112 12.8759 18.6103 13.7967 18.5569C14.7175 18.5035 15.6063 18.1997 16.3671 17.6783C17.1279 17.1556 17.7312 16.4348 18.1119 15.594C18.4926 14.7532 18.6362 13.8243 18.5271 12.9077C18.4976 12.6853 18.528 12.4591 18.615 12.2523C18.702 12.0455 18.8425 11.8656 19.0222 11.7312C19.2018 11.5968 19.414 11.5126 19.637 11.4875C19.8599 11.4624 20.0855 11.4971 20.2906 11.5881C20.4956 11.678 20.6731 11.8206 20.805 12.0014C20.937 12.1822 21.0186 12.3948 21.0415 12.6175C21.2249 14.1837 20.9161 15.7681 20.1581 17.1508C19.4001 18.5335 18.2305 19.646 16.8115 20.3338C15.3926 21.0216 13.7947 21.2506 12.2397 20.989C10.6846 20.7275 9.24962 19.9883 8.13376 18.8742C7.0179 17.76 6.27656 16.3261 6.01264 14.7715C5.74872 13.2168 5.97531 11.6186 6.66095 10.1986C7.34659 8.77863 8.45729 7.60729 9.83886 6.84719C11.2204 6.0871 12.8044 5.77595 14.3708 5.95693C14.5386 5.97249 14.7015 6.02138 14.8501 6.10073C14.9987 6.18008 15.1299 6.28829 15.2361 6.41902C15.3424 6.54976 15.4214 6.70038 15.4687 6.86207C15.516 7.02375 15.5305 7.19324 15.5114 7.36061C15.4923 7.52797 15.44 7.68984 15.3575 7.83672C15.275 7.98361 15.1641 8.11255 15.0311 8.216C14.8982 8.31944 14.7459 8.39531 14.5833 8.43915C14.4206 8.48299 14.2509 8.49392 14.0839 8.4713C13.3746 8.38894 12.6559 8.45758 11.975 8.6727C11.2941 8.88783 10.6663 9.24457 10.1331 9.7195C9.59982 10.1944 9.17307 10.7768 8.88085 11.4284C8.58864 12.0799 8.43757 12.786 8.43757 13.5001Z" fill="#890069"/>
</g>
</svg>
