<svg width="72" height="72" viewBox="0 0 72 72" fill="none" xmlns="http://www.w3.org/2000/svg">
<g id="prototipagem 1">
<g id="Group">
<path id="Vector" d="M59.9028 9H10.4028C6.57783 9 3.65283 11.925 3.65283 15.75V56.25C3.65283 60.075 6.57783 63 10.4028 63H59.9028C63.7278 63 66.6528 60.075 66.6528 56.25V15.75C66.6528 11.925 63.7278 9 59.9028 9ZM26.3778 17.1C26.6028 16.875 26.6028 16.65 26.8278 16.425C27.7278 15.525 29.0778 15.525 29.9778 16.425C30.2028 16.65 30.4278 16.875 30.4278 17.1C30.6528 17.325 30.6528 17.775 30.6528 18C30.6528 18.225 30.6528 18.675 30.4278 18.9C30.2028 19.125 30.2028 19.35 29.9778 19.575C29.5278 20.025 29.0778 20.25 28.4028 20.25C28.1778 20.25 27.7278 20.25 27.5028 20.025C27.2778 19.8 27.0528 19.8 26.8278 19.575C26.6028 19.35 26.3778 19.125 26.3778 18.9C26.1528 18.675 26.1528 18.225 26.1528 18C26.1528 17.775 26.1528 17.325 26.3778 17.1ZM19.6278 17.1C19.8528 16.875 19.8528 16.65 20.0778 16.425C20.3028 16.2 20.5278 15.975 20.7528 15.975C21.6528 15.525 22.5528 15.75 23.2278 16.425C23.4528 16.65 23.6778 16.875 23.6778 17.1C23.9028 17.325 23.9028 17.775 23.9028 18C23.9028 18.675 23.6778 19.125 23.2278 19.575C22.7778 20.025 22.3278 20.25 21.6528 20.25C20.9778 20.25 20.5278 20.025 20.0778 19.575C19.6278 19.125 19.4028 18.675 19.4028 18C19.4028 17.775 19.4028 17.325 19.6278 17.1ZM13.3278 16.425L13.5528 16.2C13.7778 16.2 13.7778 15.975 14.0028 15.975C14.2278 15.75 14.2278 15.75 14.4528 15.75C14.6778 15.75 15.1278 15.75 15.3528 15.75C15.5778 15.75 15.5778 15.75 15.8028 15.975C16.0278 15.975 16.0278 16.2 16.2528 16.2L16.4778 16.425C16.7028 16.65 16.9278 16.875 16.9278 17.1C17.1528 17.325 17.1528 17.775 17.1528 18C17.1528 18.225 17.1528 18.675 16.9278 18.9C16.9278 19.125 16.7028 19.35 16.4778 19.575C16.0278 20.025 15.5778 20.25 14.9028 20.25C14.2278 20.25 13.7778 20.025 13.3278 19.575C12.8778 19.125 12.6528 18.675 12.6528 18C12.6528 17.325 12.8778 16.875 13.3278 16.425ZM37.4028 51.75C37.4028 53.1 36.5028 54 35.1528 54H12.6528C11.3028 54 10.4028 53.1 10.4028 51.75V49.95L25.9278 42.975L37.4028 50.625V51.75ZM37.4028 45.225L27.5028 38.475C26.8278 38.025 26.1528 38.025 25.2528 38.25L10.4028 45V29.25C10.4028 27.9 11.3028 27 12.6528 27H35.1528C36.5028 27 37.4028 27.9 37.4028 29.25V45.225ZM59.9028 51.75C59.9028 53.1 59.0028 54 57.6528 54H44.1528C42.8028 54 41.9028 53.1 41.9028 51.75V45C41.9028 43.65 42.8028 42.75 44.1528 42.75H57.6528C59.0028 42.75 59.9028 43.65 59.9028 45V51.75ZM57.6528 40.5H50.9028C49.5528 40.5 48.6528 39.6 48.6528 38.25C48.6528 36.9 49.5528 36 50.9028 36H57.6528C59.0028 36 59.9028 36.9 59.9028 38.25C59.9028 39.6 59.0028 40.5 57.6528 40.5ZM57.6528 33.75H44.1528C42.8028 33.75 41.9028 32.85 41.9028 31.5C41.9028 30.15 42.8028 29.25 44.1528 29.25H57.6528C59.0028 29.25 59.9028 30.15 59.9028 31.5C59.9028 32.85 59.0028 33.75 57.6528 33.75Z" fill="#9BBB59"/>
<path id="Vector_2" d="M20.9778 34.425C20.0778 33.525 18.7278 33.525 17.8278 34.425C17.6028 34.65 17.3778 34.875 17.3778 35.1C17.1528 35.325 17.1528 35.775 17.1528 36C17.1528 36.675 17.3778 37.125 17.8278 37.575C18.0528 37.8 18.2778 38.025 18.5028 38.025C18.7278 38.025 19.1778 38.25 19.4028 38.25C20.0778 38.25 20.5278 38.025 20.9778 37.575C21.4278 37.125 21.6528 36.675 21.6528 36C21.6528 35.775 21.6528 35.325 21.4278 35.1C21.2028 34.875 21.2028 34.65 20.9778 34.425Z" fill="#B872A2"/>
</g>
</g>
</svg>
