<svg width="32" height="32" viewBox="0 0 32 32" fill="none" xmlns="http://www.w3.org/2000/svg">
<g id="solar:shield-star-bold-duotone">
<rect width="32" height="32" fill="white"/>
<path id="Vector" opacity="0.5" d="M13.599 27.7863L13.5987 27.7861C10.16 26.2853 5 22.8881 5 15.988V13.8893C5 11.7452 5.00037 10.1794 5.06152 9.05755C5.09204 8.49753 5.13623 8.08228 5.19453 7.77998C5.22333 7.63063 5.25291 7.52334 5.27958 7.4485C5.3032 7.38224 5.3199 7.35467 5.32217 7.35099C5.32459 7.34803 5.34364 7.32484 5.39449 7.28351C5.454 7.23516 5.54314 7.17319 5.67254 7.09805C5.93464 6.94585 6.30808 6.77035 6.82351 6.56087C7.85594 6.14127 9.32655 5.63706 11.3431 4.94634C11.3434 4.94623 11.3437 4.94611 11.3441 4.946L12.1062 4.68664L12.1082 4.68595C14.26 3.94852 15.1236 3.66663 16 3.66663C16.8777 3.66663 17.7398 3.94848 19.8918 4.68595L19.8924 4.68614L20.6562 4.94743C20.6563 4.94744 20.6563 4.94746 20.6564 4.94747C22.6732 5.63765 24.1441 6.14162 25.1766 6.56109C25.692 6.77048 26.0654 6.94592 26.3275 7.09809C26.4569 7.17322 26.546 7.23518 26.6055 7.28353C26.6564 7.32486 26.6754 7.34805 26.6778 7.35099C26.6801 7.35467 26.6968 7.38224 26.7204 7.44852C26.7471 7.52332 26.7767 7.63056 26.8055 7.77985C26.8638 8.08202 26.908 8.49713 26.9385 9.05706C26.9996 10.1788 27 11.7446 27 13.8893V15.988C27 22.8893 21.8402 26.2839 18.401 27.7862L18.401 27.7863C17.9056 28.0027 17.6201 28.1252 17.3018 28.2068C16.998 28.2847 16.627 28.3333 16 28.3333C15.3737 28.3333 15.0027 28.2847 14.6986 28.2068C14.3801 28.1251 14.0942 28.0026 13.599 27.7863Z" fill="#9BBB59" stroke="#3F8632" stroke-width="2"/>
<path id="Vector_2" d="M14.4814 11.1507L14.308 11.464C14.1147 11.8094 14.0187 11.9814 13.8694 12.0947C13.72 12.208 13.5334 12.2507 13.16 12.3347L12.8214 12.412C11.5094 12.708 10.8534 12.8574 10.6974 13.3587C10.5414 13.8614 10.988 14.384 11.8827 15.4294L12.1147 15.7C12.368 15.9974 12.4947 16.1454 12.552 16.3294C12.6094 16.5134 12.5907 16.712 12.552 17.108L12.5174 17.468C12.3814 18.864 12.3147 19.5614 12.7227 19.872C13.1307 20.1827 13.7454 19.8987 14.9734 19.3347L15.292 19.188C15.64 19.028 15.8147 18.9467 16 18.9467C16.1854 18.9467 16.36 19.0267 16.708 19.1867L17.0267 19.3334C18.2534 19.9 18.8694 20.1827 19.2774 19.872C19.6854 19.5627 19.6187 18.864 19.4827 17.4694L19.448 17.108C19.4094 16.712 19.3907 16.5134 19.448 16.3294C19.5054 16.1454 19.632 15.996 19.8854 15.7L20.1174 15.4294C21.0107 14.384 21.4587 13.8614 21.3027 13.3587C21.1467 12.8574 20.4907 12.708 19.1787 12.412L18.84 12.3347C18.4667 12.2507 18.28 12.208 18.1307 12.0947C17.9814 11.9814 17.8854 11.8094 17.6934 11.4654L17.5187 11.1507C16.8427 9.93871 16.5054 9.33337 16 9.33337C15.4947 9.33337 15.1574 9.93871 14.4814 11.1507Z" fill="#9BBB59"/>
</g>
</svg>
