<svg width="36" height="36" viewBox="0 0 36 36" fill="none" xmlns="http://www.w3.org/2000/svg">
<g clip-path="url(#clip0_579_705)">
<path d="M3 31.5C2.175 31.5 1.4685 31.206 0.880503 30.618C0.292503 30.03 -0.000997453 29.324 2.54669e-06 28.5V7.5C2.54669e-06 6.675 0.294003 5.9685 0.882003 5.3805C1.47 4.7925 2.176 4.499 3 4.5H33C33.825 4.5 34.5315 4.794 35.1195 5.382C35.7075 5.97 36.001 6.676 36 7.5V28.5C36 29.325 35.706 30.0315 35.118 30.6195C34.53 31.2075 33.824 31.501 33 31.5H3ZM13.5 21C14.75 21 15.8125 20.5625 16.6875 19.6875C17.5625 18.8125 18 17.75 18 16.5C18 15.25 17.5625 14.1875 16.6875 13.3125C15.8125 12.4375 14.75 12 13.5 12C12.25 12 11.1875 12.4375 10.3125 13.3125C9.4375 14.1875 9 15.25 9 16.5C9 17.75 9.4375 18.8125 10.3125 19.6875C11.1875 20.5625 12.25 21 13.5 21ZM28.5 27L31.5 24L29.25 21H26.775C26.625 20.55 26.5 20.0685 26.4 19.5555C26.3 19.0425 26.25 18.524 26.25 18C26.25 17.475 26.3 16.969 26.4 16.482C26.5 15.995 26.625 15.501 26.775 15H29.25L31.5 12L28.5 9C27.15 10.05 26.0625 11.3815 25.2375 12.9945C24.4125 14.6075 24 16.276 24 18C24 19.725 24.4125 21.394 25.2375 23.007C26.0625 24.62 27.15 25.951 28.5 27ZM3.15 28.5H23.85C22.8 26.625 21.35 25.156 19.5 24.093C17.65 23.03 15.65 22.499 13.5 22.5C11.35 22.5 9.35 23.0315 7.5 24.0945C5.65 25.1575 4.2 26.626 3.15 28.5Z" fill="#F6F6F6"/>
</g>
<defs>
<clipPath id="clip0_579_705">
<rect width="36" height="36" fill="white"/>
</clipPath>
</defs>
</svg>
